
<svg width="24px" height="24px" viewBox="0 0 24 24" version="1.1" xmlns="http://www.w3.org/2000/svg" xmlns:xlink="http://www.w3.org/1999/xlink">
    <!-- Generator: Sketch 50.2 (55047) - http://www.bohemiancoding.com/sketch -->
    <desc>Created with Sketch.</desc>
    <defs></defs>
    <g id="Symbols" stroke="none" stroke-width="1" fill="none" fill-rule="evenodd">
        <g id="COMPONENTES/HEADER/Mi-Carrito" transform="translate(-15.000000, -5.000000)" fill="#692D79">
            <g id="ICONOS/AGENCIA/Carrito" transform="translate(15.000000, 5.000000)">
                <g id="Group" transform="translate(0.000000, 0.780488)">
                    <path d="M21.12,11.2805854 L18.0253659,11.2805854 L18.0253659,9.45131707 C18.0253659,9.42536585 18.017561,9.40156098 18.0097561,9.37814634 L21.5492683,9.37814634 L21.12,11.2805854 Z M19.9512195,16.4513171 L18.0156098,16.4513171 C18.017561,16.435122 18.0253659,16.4199024 18.0253659,16.4025366 L18.0253659,14.2074146 L20.4585366,14.2074146 L19.9512195,16.4513171 Z M7.79121951,14.2074146 L10.5463415,14.2074146 L10.5619512,16.3797073 C10.5619512,16.4050732 10.5697561,16.4282927 10.5756098,16.4513171 L8.20292683,16.4513171 L7.79121951,14.2074146 Z M10.5112195,9.37814634 L10.524878,11.2805854 L7.25268293,11.2805854 L6.90341463,9.37814634 L10.5112195,9.37814634 Z M14.5014634,14.2074146 L17.537561,14.2074146 L17.537561,16.4025366 C17.537561,16.4199024 17.5434146,16.435122 17.5473171,16.4513171 L14.497561,16.4513171 L14.5014634,14.2074146 Z M14.0136585,14.2074146 L14.0097561,16.4513171 L11.0341463,16.4513171 C11.0419512,16.4273171 11.0497561,16.4029268 11.0497561,16.3763902 L11.0341463,14.2074146 L14.0136585,14.2074146 Z M11.0126829,11.2805854 L10.9990244,9.37814634 L14.0253659,9.37814634 L14.0214634,11.2805854 L11.0126829,11.2805854 Z M11.0165854,11.7683902 L14.0195122,11.7683902 L14.0156098,13.7196098 L11.0302439,13.7196098 L11.0165854,11.7683902 Z M7.34243902,11.7683902 L10.5287805,11.7683902 L10.542439,13.7196098 L7.70146341,13.7196098 L7.34243902,11.7683902 Z M17.537561,13.7196098 L14.5034146,13.7196098 L14.5073171,11.7683902 L17.537561,11.7683902 L17.537561,13.7196098 Z M20.5697561,13.7196098 L18.0253659,13.7196098 L18.0253659,11.7683902 L21.0087805,11.7683902 L20.5697561,13.7196098 Z M17.537561,11.2805854 L14.5092683,11.2805854 L14.5131707,9.37814634 L17.5512195,9.37814634 C17.5453659,9.40156098 17.537561,9.42536585 17.537561,9.45131707 L17.537561,11.2805854 Z M22.044878,8.98185366 C21.9980488,8.92409756 21.9278049,8.89034146 21.8536585,8.89034146 L6.61073171,8.89034146 C6.53853659,8.89034146 6.4702439,8.92253659 6.42341463,8.97814634 C6.37658537,9.0337561 6.35707317,9.10712195 6.37073171,9.17814634 L7.76,16.739122 C7.78146341,16.8550244 7.88292683,16.939122 8,16.939122 L20.1463415,16.939122 C20.2614634,16.939122 20.3590244,16.8600976 20.3843902,16.748878 L22.0917073,9.18790244 C22.1092683,9.1155122 22.0917073,9.03980488 22.044878,8.98185366 Z" id="Fill-92"></path>
                    <path d="M20.3668293,18.4513171 L6.68292683,18.4513171 C6.56585366,18.4513171 6.46634146,18.3685854 6.44487805,18.2538537 L4.34731707,7.47336585 C4.34341463,7.45814634 4.34146341,7.44253659 4.34146341,7.42692683 L4.34146341,6.15863415 L0.487804878,6.15863415 L0.487804878,7.08546341 L3.92780488,7.08546341 C4.06243902,7.08546341 4.17170732,7.19453659 4.17170732,7.32936585 C4.17170732,7.464 4.06243902,7.57326829 3.92780488,7.57326829 L0.243902439,7.57326829 C0.109268293,7.57326829 0,7.464 0,7.32936585 L0,5.91473171 C0,5.77990244 0.109268293,5.67082927 0.243902439,5.67082927 L4.58536585,5.67082927 C4.72,5.67082927 4.82926829,5.77990244 4.82926829,5.91473171 L4.82926829,7.40331707 L6.88390244,17.9635122 L20.3668293,17.9635122 C20.5014634,17.9635122 20.6107317,18.0725854 20.6107317,18.2074146 C20.6107317,18.3420488 20.5014634,18.4513171 20.3668293,18.4513171" id="Fill-93"></path>
                    <path d="M16.0507317,5.59590244 C15.955122,5.50068293 15.8009756,5.50068293 15.7053659,5.59590244 L14.5365854,6.76487805 L14.5365854,0.243902439 C14.5365854,0.109268293 14.4273171,0 14.2926829,0 C14.1580488,0 14.0487805,0.109268293 14.0487805,0.243902439 L14.0487805,6.78926829 L12.8078049,5.54712195 C12.7121951,5.45190244 12.5580488,5.45190244 12.462439,5.54712195 C12.3668293,5.64234146 12.3668293,5.79668293 12.462439,5.89190244 L14.0780488,7.50790244 C14.124878,7.5555122 14.1873171,7.57931707 14.2497561,7.57931707 C14.2673171,7.57931707 14.2829268,7.57326829 14.3004878,7.5697561 C14.3063415,7.57014634 14.3121951,7.57326829 14.3180488,7.57326829 C14.3804878,7.57326829 14.4429268,7.54946341 14.4897561,7.50165854 L16.0507317,5.94068293 C16.1463415,5.84546341 16.1463415,5.69112195 16.0507317,5.59590244" id="Fill-96"></path>
                    <path d="M8.68292683,19.3293659 C7.98439024,19.3293659 7.41463415,19.8983415 7.41463415,20.5976585 C7.41463415,21.2969756 7.98439024,21.8659512 8.68292683,21.8659512 C9.38341463,21.8659512 9.95121951,21.2969756 9.95121951,20.5976585 C9.95121951,19.8983415 9.38341463,19.3293659 8.68292683,19.3293659 Z M8.68292683,22.3537561 C7.71512195,22.3537561 6.92682927,21.5660488 6.92682927,20.5976585 C6.92682927,19.6292683 7.71512195,18.841561 8.68292683,18.841561 C9.65268293,18.841561 10.4390244,19.6292683 10.4390244,20.5976585 C10.4390244,21.5660488 9.65268293,22.3537561 8.68292683,22.3537561 Z" id="Fill-94"></path>
                    <path d="M18.1229268,19.3293659 C17.422439,19.3293659 16.8546341,19.8983415 16.8546341,20.5976585 C16.8546341,21.2969756 17.422439,21.8659512 18.1229268,21.8659512 C18.8214634,21.8659512 19.3912195,21.2969756 19.3912195,20.5976585 C19.3912195,19.8983415 18.8214634,19.3293659 18.1229268,19.3293659 Z M18.1229268,22.3537561 C17.155122,22.3537561 16.3668293,21.5660488 16.3668293,20.5976585 C16.3668293,19.6292683 17.155122,18.841561 18.1229268,18.841561 C19.0907317,18.841561 19.8790244,19.6292683 19.8790244,20.5976585 C19.8790244,21.5660488 19.0907317,22.3537561 18.1229268,22.3537561 Z" id="Fill-95"></path>
                    <path d="M17.7560976,7.9635122 L17.5609756,7.9635122 C17.4009756,7.9635122 17.2682927,7.83239024 17.2682927,7.67082927 C17.2682927,7.50907317 17.4009756,7.37814634 17.5609756,7.37814634 L17.7560976,7.37814634 C17.9180488,7.37814634 18.0487805,7.50907317 18.0487805,7.67082927 C18.0487805,7.83239024 17.9180488,7.9635122 17.7560976,7.9635122 Z M18.7317073,7.9635122 L18.5365854,7.9635122 C18.3765854,7.9635122 18.2439024,7.83239024 18.2439024,7.67082927 C18.2439024,7.50907317 18.3765854,7.37814634 18.5365854,7.37814634 L18.7317073,7.37814634 C18.8936585,7.37814634 19.0243902,7.50907317 19.0243902,7.67082927 C19.0243902,7.83239024 18.8936585,7.9635122 18.7317073,7.9635122 Z M19.7073171,7.9635122 L19.5121951,7.9635122 C19.3521951,7.9635122 19.2195122,7.83239024 19.2195122,7.67082927 C19.2195122,7.50907317 19.3521951,7.37814634 19.5121951,7.37814634 L19.7073171,7.37814634 C19.8692683,7.37814634 20,7.50907317 20,7.67082927 C20,7.83239024 19.8692683,7.9635122 19.7073171,7.9635122 Z M20.6829268,7.9635122 L20.4878049,7.9635122 C20.3278049,7.9635122 20.195122,7.83239024 20.195122,7.67082927 C20.195122,7.50907317 20.3278049,7.37814634 20.4878049,7.37814634 L20.6829268,7.37814634 C20.844878,7.37814634 20.9756098,7.50907317 20.9756098,7.67082927 C20.9756098,7.83239024 20.844878,7.9635122 20.6829268,7.9635122 Z M21.6585366,7.9635122 L21.4634146,7.9635122 C21.3034146,7.9635122 21.1707317,7.83239024 21.1707317,7.67082927 C21.1707317,7.50907317 21.3034146,7.37814634 21.4634146,7.37814634 L21.6585366,7.37814634 C21.8204878,7.37814634 21.9512195,7.50907317 21.9512195,7.67082927 C21.9512195,7.83239024 21.8204878,7.9635122 21.6585366,7.9635122 Z M22.6341463,7.9635122 L22.4390244,7.9635122 C22.2790244,7.9635122 22.1463415,7.83239024 22.1463415,7.67082927 C22.1463415,7.50907317 22.2790244,7.37814634 22.4390244,7.37814634 L22.6341463,7.37814634 C22.7960976,7.37814634 22.9268293,7.50907317 22.9268293,7.67082927 C22.9268293,7.83239024 22.7960976,7.9635122 22.6341463,7.9635122 Z M23.6097561,7.9635122 L23.4146341,7.9635122 C23.2546341,7.9635122 23.1219512,7.83239024 23.1219512,7.67082927 C23.1219512,7.50907317 23.2546341,7.37814634 23.4146341,7.37814634 L23.6097561,7.37814634 C23.7717073,7.37814634 23.902439,7.50907317 23.902439,7.67082927 C23.902439,7.83239024 23.7717073,7.9635122 23.6097561,7.9635122 Z M23.4712195,8.87082927 C23.4497561,8.87082927 23.4302439,8.86887805 23.4107317,8.86478049 C23.2526829,8.83180488 23.1512195,8.67668293 23.182439,8.51843902 L23.2234146,8.32741463 C23.2565854,8.16897561 23.4126829,8.06712195 23.5687805,8.1004878 C23.7268293,8.13346341 23.8302439,8.28858537 23.7970732,8.44663415 L23.7560976,8.63785366 C23.7268293,8.776 23.6058537,8.87082927 23.4712195,8.87082927 Z M23.2702439,9.82595122 C23.2507317,9.82595122 23.2312195,9.824 23.2097561,9.8195122 C23.0517073,9.78653659 22.9502439,9.63141463 22.9834146,9.47317073 L23.0243902,9.28195122 C23.057561,9.12370732 23.2136585,9.02165854 23.3697561,9.05560976 C23.5297561,9.08858537 23.6292683,9.24370732 23.5960976,9.40214634 L23.5570732,9.59317073 C23.5278049,9.73112195 23.4068293,9.82595122 23.2702439,9.82595122 Z M23.0712195,10.780878 C23.0517073,10.780878 23.0321951,10.7789268 23.0126829,10.7748293 C22.8526829,10.7418537 22.7512195,10.5867317 22.7843902,10.4284878 L22.8253659,10.2374634 C22.8585366,10.0790244 23.0126829,9.97697561 23.1707317,10.0105366 C23.3287805,10.0435122 23.4302439,10.1986341 23.3970732,10.3566829 L23.3580488,10.5479024 C23.3287805,10.6860488 23.2078049,10.780878 23.0712195,10.780878 Z M22.8721951,11.736 C22.8526829,11.736 22.8331707,11.7340488 22.8117073,11.7297561 C22.6536585,11.6965854 22.5521951,11.5416585 22.5853659,11.3834146 L22.6263415,11.1923902 C22.6595122,11.0343415 22.8136585,10.9322927 22.9717073,10.9656585 C23.1297561,10.9988293 23.2312195,11.1537561 23.1980488,11.3121951 L23.1590244,11.5030244 C23.1297561,11.6409756 23.0087805,11.736 22.8721951,11.736 Z M22.6731707,12.6909268 C22.6536585,12.6909268 22.6341463,12.6889756 22.6126829,12.684878 C22.4546341,12.6517073 22.3531707,12.4967805 22.3863415,12.3383415 L22.4253659,12.1475122 C22.4585366,11.9892683 22.6146341,11.8876098 22.7726829,11.9207805 C22.9307317,11.9539512 23.0321951,12.108878 22.9990244,12.267122 L22.96,12.4581463 C22.9307317,12.5960976 22.8097561,12.6909268 22.6731707,12.6909268 Z M22.4741463,13.6460488 C22.4546341,13.6460488 22.435122,13.6440976 22.4136585,13.6398049 C22.2556098,13.6068293 22.1541463,13.4519024 22.1873171,13.2934634 L22.2263415,13.102439 C22.2595122,12.9443902 22.4156098,12.8421463 22.5736585,12.8757073 C22.7317073,12.908878 22.8331707,13.0638049 22.8,13.2222439 L22.7609756,13.4130732 C22.7317073,13.5510244 22.6107317,13.6460488 22.4741463,13.6460488 Z M22.275122,14.6009756 C22.2556098,14.6009756 22.2360976,14.5990244 22.2146341,14.5949268 C22.0565854,14.5617561 21.955122,14.4068293 21.9882927,14.2485854 L22.0273171,14.057561 C22.0604878,13.8995122 22.2146341,13.7976585 22.3746341,13.8308293 C22.5326829,13.864 22.6341463,14.0189268 22.6009756,14.1771707 L22.5619512,14.3681951 C22.5326829,14.5061463 22.4117073,14.6009756 22.275122,14.6009756 Z M22.0760976,15.5562927 C22.0565854,15.5562927 22.035122,15.5543415 22.0156098,15.5502439 C21.857561,15.5170732 21.7560976,15.3621463 21.7892683,15.2039024 L21.8282927,15.012878 C21.8614634,14.854439 22.017561,14.7523902 22.1756098,14.7859512 C22.3336585,14.8187317 22.435122,14.9738537 22.4019512,15.1320976 L22.3629268,15.323122 C22.3336585,15.4612683 22.2107317,15.5562927 22.0760976,15.5562927 Z M21.8790244,16.5000976 C21.8595122,16.5000976 21.84,16.4981463 21.8185366,16.4938537 C21.6604878,16.4606829 21.5590244,16.3057561 21.5921951,16.1475122 L21.6292683,15.9676098 C21.662439,15.809561 21.8165854,15.7075122 21.9765854,15.740878 C22.1346341,15.7740488 22.2360976,15.9289756 22.2029268,16.0872195 L22.1658537,16.267122 C22.1365854,16.4050732 22.0156098,16.5000976 21.8790244,16.5000976 Z" id="Fill-97"></path>
                    <path d="M3.4302439,9.61795122 C3.29365854,9.61795122 3.17268293,9.52292683 3.14341463,9.38439024 L3.10439024,9.19317073 C3.07121951,9.03512195 3.17268293,8.88019512 3.33268293,8.84760976 C3.48878049,8.81385366 3.64487805,8.9164878 3.67804878,9.07512195 L3.71707317,9.26614634 C3.7502439,9.42439024 3.64682927,9.57931707 3.48878049,9.61190244 C3.46926829,9.616 3.4497561,9.61795122 3.4302439,9.61795122 Z M3.62731707,10.5736585 C3.49073171,10.5736585 3.3697561,10.478439 3.3404878,10.3399024 L3.30146341,10.148878 C3.26829268,9.99063415 3.3697561,9.83570732 3.52780488,9.80312195 C3.68585366,9.76956098 3.84195122,9.87219512 3.87512195,10.0306341 L3.91414634,10.2218537 C3.94731707,10.3799024 3.84390244,10.5348293 3.68585366,10.5674146 C3.66634146,10.5717073 3.64682927,10.5736585 3.62731707,10.5736585 Z M3.82439024,11.5289756 C3.68780488,11.5289756 3.56682927,11.4339512 3.53756098,11.2954146 L3.49853659,11.1041951 C3.46536585,10.9461463 3.56682927,10.7912195 3.72487805,10.7586341 C3.88292683,10.7250732 4.03902439,10.8275122 4.0702439,10.9861463 L4.11121951,11.1771707 C4.14243902,11.3354146 4.04097561,11.4903415 3.88292683,11.5229268 C3.86341463,11.5270244 3.84390244,11.5289756 3.82439024,11.5289756 Z M4.0195122,12.4846829 C3.88487805,12.4846829 3.76195122,12.3892683 3.73463415,12.2507317 L3.69560976,12.0597073 C3.66243902,11.9012683 3.76390244,11.7465366 3.92195122,11.7139512 C4.08,11.6823415 4.23609756,11.7834146 4.26926829,11.9418537 L4.30829268,12.1330732 C4.3395122,12.2913171 4.23804878,12.4460488 4.08,12.4786341 C4.0604878,12.4827317 4.04097561,12.4846829 4.0195122,12.4846829 Z M4.21658537,13.4401951 C4.08195122,13.4401951 3.95902439,13.3449756 3.93170732,13.206439 L3.89073171,13.0152195 C3.8595122,12.8569756 3.96097561,12.7022439 4.11902439,12.6696585 C4.27707317,12.6376585 4.43317073,12.7389268 4.46439024,12.897561 L4.50536585,13.0885854 C4.53658537,13.2470244 4.43512195,13.4017561 4.27707317,13.4343415 C4.25756098,13.4382439 4.23609756,13.4401951 4.21658537,13.4401951 Z M4.41365854,14.3957073 C4.27902439,14.3957073 4.15609756,14.3004878 4.12878049,14.1619512 L4.08780488,13.9709268 C4.05658537,13.8126829 4.15804878,13.6577561 4.31609756,13.6251707 C4.47219512,13.5918049 4.62829268,13.6942439 4.66146341,13.8526829 L4.7004878,14.0439024 C4.73365854,14.2019512 4.63219512,14.356878 4.47414634,14.3894634 C4.45463415,14.3937561 4.43317073,14.3957073 4.41365854,14.3957073 Z M4.61073171,15.3512195 C4.47609756,15.3512195 4.35317073,15.2561951 4.32585366,15.1176585 L4.28487805,14.926439 C4.25365854,14.7683902 4.35512195,14.6134634 4.51317073,14.580878 C4.66926829,14.5473171 4.82536585,14.6497561 4.85853659,14.8083902 L4.89756098,14.9994146 C4.93073171,15.1576585 4.82926829,15.3125854 4.67121951,15.3451707 C4.65170732,15.3492683 4.6302439,15.3512195 4.61073171,15.3512195 Z M4.80780488,16.3067317 C4.67121951,16.3067317 4.5502439,16.2117073 4.52097561,16.0731707 L4.48195122,15.8821463 C4.44878049,15.7239024 4.55219512,15.5689756 4.7102439,15.5363902 C4.86634146,15.5028293 5.02243902,15.6054634 5.05560976,15.7639024 L5.09463415,15.955122 C5.12780488,16.1131707 5.02634146,16.2680976 4.86829268,16.3006829 C4.84682927,16.3049756 4.82731707,16.3067317 4.80780488,16.3067317 Z M5.00487805,17.2622439 C4.86829268,17.2622439 4.74731707,17.1672195 4.71804878,17.0286829 L4.67902439,16.8374634 C4.64585366,16.6794146 4.74926829,16.5244878 4.90731707,16.4919024 C5.06341463,16.4585366 5.2195122,16.5607805 5.25268293,16.7194146 L5.29170732,16.910439 C5.32487805,17.0686829 5.22341463,17.2236098 5.06341463,17.2561951 C5.04390244,17.2602927 5.02439024,17.2622439 5.00487805,17.2622439 Z M5.20195122,18.2177561 C5.06536585,18.2177561 4.94439024,18.1225366 4.91512195,17.984 L4.87609756,17.7929756 C4.84292683,17.6345366 4.94634146,17.4798049 5.10439024,17.4472195 C5.2604878,17.4152195 5.41658537,17.5166829 5.4497561,17.675122 L5.48878049,17.8663415 C5.52195122,18.0245854 5.41853659,18.1793171 5.2604878,18.2119024 C5.24097561,18.216 5.22146341,18.2177561 5.20195122,18.2177561 Z M5.39121951,19.1342439 C5.25463415,19.1342439 5.13170732,19.0388293 5.10439024,18.9004878 L5.07317073,18.7486829 C5.04,18.5902439 5.14146341,18.4355122 5.30146341,18.403122 C5.45756098,18.3697561 5.61365854,18.4721951 5.64682927,18.6306341 L5.67804878,18.782439 C5.70926829,18.9406829 5.60780488,19.0956098 5.4497561,19.128 C5.4302439,19.1322927 5.41073171,19.1342439 5.39121951,19.1342439 Z" id="Fill-98"></path>
                </g>
            </g>
        </g>
    </g>
</svg>
