<svg width="26px" height="28px" viewBox="0 0 26 28" version="1.1" xmlns="http://www.w3.org/2000/svg" xmlns:xlink="http://www.w3.org/1999/xlink">
    <!-- Generator: Sketch 49.3 (51167) - http://www.bohemiancoding.com/sketch -->
    <desc>Created with Sketch.</desc>
    <defs></defs>
    <g id="Symbols" stroke="none" stroke-width="1" fill="none" fill-rule="evenodd">
        <g id="COMPONENTES/HEADER/Botón-Menú-Catálogo" transform="translate(-1.000000, 0.000000)" fill="#692D79">
            <g id="ICONOS/AGENCIA/Catálogo">
                <g id="Group" transform="translate(1.866667, 0.000000)">
                    <path d="M9.01979167,28 L8.771875,28 C8.56635208,28 8.4,27.7909333 8.4,27.5333333 C8.4,27.2757333 8.56635208,27.0666667 8.771875,27.0666667 L9.01979167,27.0666667 C9.22506667,27.0666667 9.39166667,27.2757333 9.39166667,27.5333333 C9.39166667,27.7909333 9.22506667,28 9.01979167,28 Z M10.5072917,28 L10.259375,28 C10.0538521,28 9.8875,27.7909333 9.8875,27.5333333 C9.8875,27.2757333 10.0538521,27.0666667 10.259375,27.0666667 L10.5072917,27.0666667 C10.7125667,27.0666667 10.8791667,27.2757333 10.8791667,27.5333333 C10.8791667,27.7909333 10.7125667,28 10.5072917,28 Z M11.9947917,28 L11.746875,28 C11.5413521,28 11.375,27.7909333 11.375,27.5333333 C11.375,27.2757333 11.5413521,27.0666667 11.746875,27.0666667 L11.9947917,27.0666667 C12.2000667,27.0666667 12.3666667,27.2757333 12.3666667,27.5333333 C12.3666667,27.7909333 12.2000667,28 11.9947917,28 Z M13.4822917,28 L13.234375,28 C13.0288521,28 12.8625,27.7909333 12.8625,27.5333333 C12.8625,27.2757333 13.0288521,27.0666667 13.234375,27.0666667 L13.4822917,27.0666667 C13.6875667,27.0666667 13.8541667,27.2757333 13.8541667,27.5333333 C13.8541667,27.7909333 13.6875667,28 13.4822917,28 Z M14.9697917,28 L14.721875,28 C14.5163521,28 14.35,27.7909333 14.35,27.5333333 C14.35,27.2757333 14.5163521,27.0666667 14.721875,27.0666667 L14.9697917,27.0666667 C15.1750667,27.0666667 15.3416667,27.2757333 15.3416667,27.5333333 C15.3416667,27.7909333 15.1750667,28 14.9697917,28 Z M16.4572917,28 L16.209375,28 C16.0038521,28 15.8375,27.7909333 15.8375,27.5333333 C15.8375,27.2757333 16.0038521,27.0666667 16.209375,27.0666667 L16.4572917,27.0666667 C16.6625667,27.0666667 16.8291667,27.2757333 16.8291667,27.5333333 C16.8291667,27.7909333 16.6625667,28 16.4572917,28 Z M17.9447917,28 L17.696875,28 C17.4913521,28 17.325,27.7909333 17.325,27.5333333 C17.325,27.2757333 17.4913521,27.0666667 17.696875,27.0666667 L17.9447917,27.0666667 C18.1500667,27.0666667 18.3166667,27.2757333 18.3166667,27.5333333 C18.3166667,27.7909333 18.1500667,28 17.9447917,28 Z M19.4322917,28 L19.184375,28 C18.9788521,28 18.8125,27.7909333 18.8125,27.5333333 C18.8125,27.2757333 18.9788521,27.0666667 19.184375,27.0666667 L19.4322917,27.0666667 C19.6375667,27.0666667 19.8041667,27.2757333 19.8041667,27.5333333 C19.8041667,27.7909333 19.6375667,28 19.4322917,28 Z M20.9197917,28 L20.671875,28 C20.4663521,28 20.3,27.7909333 20.3,27.5333333 C20.3,27.2757333 20.4663521,27.0666667 20.671875,27.0666667 L20.9197917,27.0666667 C21.1250667,27.0666667 21.2916667,27.2757333 21.2916667,27.5333333 C21.2916667,27.7909333 21.1250667,28 20.9197917,28 Z M22.4072917,28 L22.159375,28 C21.9538521,28 21.7875,27.7909333 21.7875,27.5333333 C21.7875,27.2757333 21.9538521,27.0666667 22.159375,27.0666667 L22.4072917,27.0666667 C22.6125667,27.0666667 22.7791667,27.2757333 22.7791667,27.5333333 C22.7791667,27.7909333 22.6125667,28 22.4072917,28 Z M23.8947917,28 L23.646875,28 C23.4413521,28 23.275,27.7909333 23.275,27.5333333 C23.275,27.2757333 23.4413521,27.0666667 23.646875,27.0666667 L23.8947917,27.0666667 C24.1000667,27.0666667 24.2666667,27.2757333 24.2666667,27.5333333 C24.2666667,27.7909333 24.1000667,28 23.8947917,28 Z" id="Fill-4"></path>
                    <path d="M23.8,18.6666667 C23.5424,18.6666667 23.3333333,18.5098667 23.3333333,18.3166667 L23.3333333,18.0833333 C23.3333333,17.8901333 23.5424,17.7333333 23.8,17.7333333 C24.0579111,17.7333333 24.2666667,17.8901333 24.2666667,18.0833333 L24.2666667,18.3166667 C24.2666667,18.5098667 24.0579111,18.6666667 23.8,18.6666667 Z M23.8,20.0666667 C23.5424,20.0666667 23.3333333,19.9098667 23.3333333,19.7166667 L23.3333333,19.4833333 C23.3333333,19.2901333 23.5424,19.1333333 23.8,19.1333333 C24.0579111,19.1333333 24.2666667,19.2901333 24.2666667,19.4833333 L24.2666667,19.7166667 C24.2666667,19.9098667 24.0579111,20.0666667 23.8,20.0666667 Z M23.8,21.4666667 C23.5424,21.4666667 23.3333333,21.3098667 23.3333333,21.1166667 L23.3333333,20.8833333 C23.3333333,20.6901333 23.5424,20.5333333 23.8,20.5333333 C24.0579111,20.5333333 24.2666667,20.6901333 24.2666667,20.8833333 L24.2666667,21.1166667 C24.2666667,21.3098667 24.0579111,21.4666667 23.8,21.4666667 Z M23.8,22.8666667 C23.5424,22.8666667 23.3333333,22.7098667 23.3333333,22.5166667 L23.3333333,22.2833333 C23.3333333,22.0901333 23.5424,21.9333333 23.8,21.9333333 C24.0579111,21.9333333 24.2666667,22.0901333 24.2666667,22.2833333 L24.2666667,22.5166667 C24.2666667,22.7098667 24.0579111,22.8666667 23.8,22.8666667 Z M23.8,24.2666667 C23.5424,24.2666667 23.3333333,24.1101 23.3333333,23.9166667 L23.3333333,23.6833333 C23.3333333,23.4901333 23.5424,23.3333333 23.8,23.3333333 C24.0579111,23.3333333 24.2666667,23.4901333 24.2666667,23.6833333 L24.2666667,23.9166667 C24.2666667,24.1101 24.0579111,24.2666667 23.8,24.2666667 Z M23.8,25.6666667 C23.5424,25.6666667 23.3333333,25.5101 23.3333333,25.3166667 L23.3333333,25.0833333 C23.3333333,24.8901333 23.5424,24.7333333 23.8,24.7333333 C24.0579111,24.7333333 24.2666667,24.8901333 24.2666667,25.0833333 L24.2666667,25.3166667 C24.2666667,25.5101 24.0579111,25.6666667 23.8,25.6666667 Z M23.8,27.0666667 C23.5424,27.0666667 23.3333333,26.9101 23.3333333,26.7166667 L23.3333333,26.4833333 C23.3333333,26.2901333 23.5424,26.1333333 23.8,26.1333333 C24.0579111,26.1333333 24.2666667,26.2901333 24.2666667,26.4833333 L24.2666667,26.7166667 C24.2666667,26.9101 24.0579111,27.0666667 23.8,27.0666667 Z" id="Fill-5"></path>
                    <path d="M6.10067125,0.779423556 C6.09353374,0.779423556 6.08615831,0.779166236 6.07878287,0.778651595 C6.0097869,0.774277148 5.94079093,0.771961264 5.87155705,0.771961264 C5.67456166,0.771961264 5.51039883,0.599041941 5.51039883,0.385980632 C5.51039883,0.172919323 5.66552081,0 5.8625162,0 C5.95530388,0 6.03857488,0.00283052463 6.12208379,0.00823425348 C6.31884127,0.0211002746 6.46872906,0.204312415 6.45659529,0.416859083 C6.44493735,0.621686138 6.28791204,0.779423556 6.10067125,0.779423556 Z M4.47070094,1.06710779 C4.32961608,1.06710779 4.19590664,0.976273679 4.1397582,0.826255873 C4.06576597,0.628376469 4.15379531,0.403478421 4.33651567,0.32345177 C4.41693167,0.288198872 4.49853724,0.255776499 4.58061866,0.22618465 C4.76785944,0.15850938 4.97008901,0.268385199 5.03218538,0.47012441 C5.09451968,0.672378261 4.99340489,0.891100619 4.80663994,0.95851857 C4.73835772,0.98296401 4.67102717,1.00998265 4.60464829,1.03905986 C4.56063362,1.05810157 4.51542936,1.06710779 4.47070094,1.06710779 Z M7.47440481,1.1618017 C7.42325262,1.1618017 7.37114877,1.14996496 7.32189992,1.12449024 C7.25694854,1.09129591 7.19175925,1.06041746 7.12561828,1.03236953 C6.94194625,0.954144122 6.85201357,0.730018035 6.92434038,0.531623991 C6.99666719,0.332972625 7.20436885,0.235962826 7.38708922,0.314188234 C7.46821896,0.348669171 7.54839704,0.386237952 7.62762344,0.426894579 C7.80582338,0.518500649 7.88148103,0.748545106 7.79725836,0.941020781 C7.73611366,1.08023113 7.60811424,1.1618017 7.47440481,1.1618017 Z M3.28539776,1.90957485 C3.19332383,1.90957485 3.10148781,1.8712341 3.03154017,1.79480994 C2.8930724,1.64324821 2.8944999,1.39879381 3.03463309,1.24903333 C3.09696738,1.18238734 3.16120501,1.11857187 3.22687014,1.05707229 C3.3762821,0.917604623 3.60182755,0.935874372 3.73006489,1.09695696 C3.85901598,1.25829686 3.8425997,1.5019793 3.69342565,1.64118965 C3.63965638,1.69136713 3.58731461,1.74360318 3.53616242,1.7981551 C3.46669062,1.87226339 3.37604419,1.90957485 3.28539776,1.90957485 Z M8.65828048,2.01662014 C8.57762657,2.01662014 8.49625891,1.98728561 8.4294042,1.92655799 C8.37277992,1.87535123 8.31449022,1.82440179 8.25405927,1.77345234 C8.09869938,1.64196161 8.07086307,1.39930845 8.19220081,1.23153554 C8.31353855,1.06324798 8.53813233,1.03391345 8.6932543,1.16463223 C8.76010902,1.22124272 8.82482248,1.27785321 8.88763261,1.33472103 C9.03870999,1.47135817 9.05869503,1.71478329 8.93212311,1.87843908 C8.86169964,1.96953051 8.76034694,2.01662014 8.65828048,2.01662014 Z M9.63564409,3.13544933 C9.52596429,3.13544933 9.41747407,3.0808974 9.34752643,2.9774546 C9.30422551,2.91338181 9.25878334,2.84930903 9.21191366,2.78575088 C9.08938634,2.61900725 9.11484347,2.37609677 9.26877586,2.24331943 C9.423422,2.1105421 9.64753994,2.1383327 9.7705431,2.30481901 C9.82359863,2.37686873 9.87427498,2.44917577 9.92352382,2.52174013 C10.0401032,2.69388749 10.0053673,2.93525405 9.84620075,3.06134105 C9.7829148,3.11151854 9.70892257,3.13544933 9.63564409,3.13544933 Z M2.48647201,3.17764988 C2.43960233,3.17764988 2.39225682,3.16787171 2.34681465,3.14677143 C2.16528387,3.06288498 2.08106121,2.836443 2.15838428,2.64036484 C2.19216851,2.5541625 2.22904567,2.46873212 2.26853991,2.38433102 C2.35752092,2.19365659 2.5723601,2.11800439 2.74770503,2.21372758 C2.92400163,2.3097081 2.99418718,2.54181112 2.90544409,2.73197091 C2.87308736,2.80196207 2.84287188,2.87221054 2.81503558,2.94271634 C2.75698379,3.0896463 2.6251777,3.17764988 2.48647201,3.17764988 Z M2.20810896,4.29467783 L1.85123325,4.29467783 C1.85099533,4.18891914 1.85361242,4.10091556 1.85860868,4.01342661 C1.87121829,3.8003653 2.03704654,3.640312 2.23737277,3.65240606 C2.43413024,3.66604404 2.5835422,3.8495135 2.57093259,4.06206017 C2.566888,4.13282329 2.56474675,4.2035864 2.56498466,4.2740922 L2.20810896,4.29467783 Z M10.3344067,4.47737533 C10.1968906,4.47737533 10.0657983,4.39117299 10.0072707,4.24604427 C9.97705518,4.17142135 9.94588804,4.09679843 9.91329339,4.02243283 C9.82930864,3.82969983 9.90544212,3.59965537 10.0836421,3.50856395 C10.261842,3.4172152 10.4747778,3.50007237 10.5587626,3.69280537 C10.5942122,3.77360398 10.6279965,3.85517455 10.661067,3.93700245 C10.7400554,4.13230865 10.6577361,4.35952258 10.477157,4.44495296 C10.4305252,4.46708251 10.3819901,4.47737533 10.3344067,4.47737533 Z M10.8430736,5.91914165 C10.6969924,5.91914165 10.5601901,5.82187453 10.5076104,5.6651664 L10.4262427,5.42096932 C10.3596259,5.22025939 10.4562203,4.99947847 10.6417957,4.92742875 C10.8266573,4.85589367 11.0315039,4.95985112 11.0981207,5.16081837 L11.1785367,5.40115564 C11.2456294,5.60160825 11.1502246,5.82316114 10.9648871,5.89598281 C10.9244412,5.91193668 10.8835195,5.91914165 10.8430736,5.91914165 Z M2.48837535,6.18495365 C2.3475284,6.18495365 2.21405689,6.09437686 2.15767052,5.94461637 C2.12483796,5.85764207 2.0948604,5.76989581 2.06726201,5.68112026 C2.00397605,5.47912373 2.10437709,5.26014405 2.29114204,5.19221146 C2.47790699,5.12376423 2.68037448,5.23235345 2.74342252,5.43434998 C2.76626256,5.50794362 2.7917197,5.58127994 2.81884225,5.65358698 C2.8930724,5.85095174 2.80528097,6.07610711 2.62279853,6.1566484 C2.57854594,6.17594743 2.53310377,6.18495365 2.48837535,6.18495365 Z M0.594792845,7.46666667 L0.356875707,7.46666667 C0.1596424,7.46666667 0,7.29374734 0,7.08068603 C0,6.86762473 0.1596424,6.6947054 0.356875707,6.6947054 L0.594792845,6.6947054 C0.791788235,6.6947054 0.951668552,6.86762473 0.951668552,7.08068603 C0.951668552,7.29374734 0.791788235,7.46666667 0.594792845,7.46666667 Z M2.02229567,7.46666667 L1.78437853,7.46666667 C1.58714523,7.46666667 1.42750283,7.29374734 1.42750283,7.08068603 C1.42750283,6.86762473 1.58714523,6.6947054 1.78437853,6.6947054 L2.02229567,6.6947054 C2.21929106,6.6947054 2.37917138,6.86762473 2.37917138,7.08068603 C2.37917138,7.29374734 2.21929106,7.46666667 2.02229567,7.46666667 Z M3.23258015,7.46666667 C3.1026774,7.46666667 2.9846705,7.39178642 2.91924328,7.27959472 C2.88355571,7.23507829 2.84858189,7.19004721 2.81479766,7.14475882 C2.69060491,6.97904447 2.71439663,6.73613399 2.86761526,6.60181273 C3.02107182,6.46800611 3.24590351,6.49373815 3.36962042,6.65919518 C3.41125592,6.71503372 3.45431893,6.76984297 3.49904735,6.82362293 C3.59254878,6.93710124 3.61586466,7.09947043 3.55852663,7.23842345 C3.50071277,7.37711916 3.37318918,7.46666667 3.23258015,7.46666667 Z" id="Fill-6"></path>
                    <path d="M15.1534425,11.8436373 L22.5896167,11.8436373 L22.5896167,8.66912246 L15.1534425,8.66912246 L15.1534425,11.8436373 Z M13.0172405,7.7769633 C14.1360382,6.8791231 14.4754208,5.97181451 14.7796009,5.15895313 C15.0974158,4.31034857 15.3715993,3.57749509 16.4770101,2.89340382 C16.8240778,2.67894476 17.2140332,2.57621272 17.5995263,2.57621272 C18.2676317,2.57621272 18.9213586,2.88417214 19.3120577,3.45038194 C19.914964,4.32597141 19.6556548,5.49389747 18.7093994,6.16710008 C17.4217781,7.0824568 14.4030324,7.66831351 13.0172405,7.7769633 Z M9.8569408,25.423204 L14.4097259,25.423204 L14.4097259,8.66912246 L9.8569408,8.66912246 L9.8569408,25.423204 Z M1.67704992,11.8436373 L9.11322421,11.8436373 L9.11322421,8.66912246 L1.67704992,8.66912246 L1.67704992,11.8436373 Z M5.5669356,6.16710008 C4.62043229,5.49389747 4.36137101,4.32620812 4.96452516,3.45038194 C5.58007459,2.55680251 6.85182996,2.30731041 7.7993249,2.89340382 C8.90473566,3.57749509 9.17916708,4.31034857 9.49673407,5.15895313 C9.80066625,5.97181451 10.1402968,6.8791231 11.2588466,7.7769633 C9.87305466,7.66831351 6.85455692,7.0824568 5.5669356,6.16710008 Z M22.961475,7.95899312 L16.0687097,7.95899312 C17.2784887,7.65103369 18.4612459,7.22874345 19.1533982,6.73662381 L19.1536461,6.73662381 C20.4206913,5.83523297 20.7561074,4.25472177 19.933309,3.06028422 C19.093653,1.84193898 17.361537,1.49965664 16.0726762,2.2973686 C14.7560499,3.11212366 14.411957,4.03103103 14.0792678,4.91987625 C13.7460828,5.81108857 13.4277721,6.65377539 12.1379196,7.52605093 C10.848315,6.65377539 10.5302522,5.81108857 10.1970672,4.91987625 C9.86413006,4.03103103 9.520533,3.11212366 8.20365882,2.2973686 C6.91479797,1.49989335 5.18292993,1.84193898 4.3432739,3.06028422 C3.52022754,4.25495848 3.85539582,5.83546968 5.1229368,6.73662381 C5.81484113,7.22874345 6.99784632,7.65150711 8.2073774,7.95899312 L1.30519163,7.95899312 C1.09992585,7.95899312 0.933333333,8.11806209 0.933333333,8.31405779 L0.933333333,12.198702 C0.933333333,12.3949344 1.09992585,12.5537667 1.30519163,12.5537667 L9.11322421,12.5537667 L9.11322421,25.423204 L2.73684607,25.423204 L2.73684607,14.6249772 C2.73684607,14.4289815 2.57025355,14.2699126 2.36498777,14.2699126 C2.15972199,14.2699126 1.99312948,14.4289815 1.99312948,14.6249772 L1.99312948,25.7782687 C1.99312948,25.9742644 2.15972199,26.1333333 2.36498777,26.1333333 L9.4848346,26.1333333 C9.48508251,26.1333333 9.48508251,26.1333333 9.48508251,26.1333333 L14.7815842,26.1333333 C14.7815842,26.1333333 14.7815842,26.1333333 14.7818321,26.1333333 L21.9016789,26.1333333 C22.1069447,26.1333333 22.2735372,25.9742644 22.2735372,25.7782687 L22.2735372,14.6249772 C22.2735372,14.4289815 22.1069447,14.2699126 21.9016789,14.2699126 C21.6964131,14.2699126 21.5298206,14.4289815 21.5298206,14.6249772 L21.5298206,25.423204 L15.1534425,25.423204 L15.1534425,12.5537667 L22.961475,12.5537667 C23.1667408,12.5537667 23.3333333,12.3949344 23.3333333,12.198702 L23.3333333,8.31405779 C23.3333333,8.11806209 23.1667408,7.95899312 22.961475,7.95899312 Z" id="Fill-7"></path>
                </g>
            </g>
        </g>
    </g>
</svg>
