
<svg width="24px" height="24px" viewBox="0 0 24 24" version="1.1" xmlns="http://www.w3.org/2000/svg" xmlns:xlink="http://www.w3.org/1999/xlink">
    <!-- Generator: Sketch 50.2 (55047) - http://www.bohemiancoding.com/sketch -->
    <desc>Created with Sketch.</desc>
    <defs></defs>
    <g id="Symbols" stroke="none" stroke-width="1" fill="none" fill-rule="evenodd">
        <g id="COMPONENTES/HEADER/Mis-Favoritos" transform="translate(-23.000000, -6.000000)" fill="#692D79">
            <g id="ICONOS/AGENCIA/Corazón" transform="translate(23.000000, 6.000000)">
                <g id="Group-5">
                    <path d="M6.91800198,0.67668751 C3.47591818,0.67668751 0.67668751,3.61035343 0.67668751,7.21642117 C0.67668751,8.84543357 1.30826252,10.4446717 2.50374379,11.8404525 C4.64207632,14.3326926 11.4630864,21.5069336 11.5284996,21.5766324 C11.5781233,21.6285118 11.6570702,21.6271584 11.7044383,21.5779858 C11.7698514,21.5087381 18.5931172,14.3308881 20.7291941,11.8400014 C21.9246753,10.4446717 22.5562503,8.8458847 22.5562503,7.21642117 C22.5562503,3.61035343 19.7570197,0.67668751 16.3149359,0.67668751 C14.6277283,0.67668751 13.0465352,1.37232227 11.8645877,2.63592342 L11.6164689,2.89983154 L11.3706058,2.63592342 C10.1864027,1.37232227 8.60520951,0.67668751 6.91800198,0.67668751 Z M11.6164689,22.2930189 C11.3999289,22.2930189 11.1879002,22.2016661 11.0390289,22.0426445 C10.9736158,21.9742991 4.13907194,14.7853965 1.98946128,12.2805249 C0.687965635,10.7606848 0,9.00941751 0,7.21642117 C0,3.23727305 3.10374005,0 6.91800198,0 C8.67964513,0 10.3352739,0.679845385 11.6164689,1.92179253 C12.8976639,0.679845385 14.5532927,0 16.3149359,0 C20.1291978,0 23.2329379,3.23727305 23.2329379,7.21642117 C23.2329379,9.00941751 22.5449722,10.7606848 21.2412209,12.2805249 C19.0961215,14.7833665 12.2593221,21.9765547 12.1939089,22.0439979 C12.0450377,22.2016661 11.8330089,22.2930189 11.6164689,22.2930189 Z" id="Fill-200"></path>
                    <path d="M0.712019461,13.4773557 C0.619538835,13.4773557 0.527058208,13.4392357 0.459389457,13.3634467 L0.310518205,13.1938237 C0.186458828,13.0532982 0.199992578,12.839465 0.33984133,12.7160823 C0.479690082,12.5920229 0.693974461,12.6064589 0.818033838,12.7460821 L0.96690509,12.9148029 C1.09096447,13.0548772 1.07743072,13.2687104 0.937581964,13.3923187 C0.872168838,13.4496115 0.793221962,13.4773557 0.712019461,13.4773557 Z M1.6165251,14.4871991 C1.52404447,14.4871991 1.43381947,14.4497557 1.36615072,14.3757712 L1.21502384,14.2084038 C1.08870884,14.0694573 1.09998697,13.8558496 1.23983572,13.7304369 C1.37742885,13.6052497 1.59171322,13.6154 1.71802823,13.7545721 L1.8691551,13.9223906 C1.99321448,14.0611115 1.98193636,14.2749447 1.84434323,14.3999064 C1.7789301,14.4585526 1.6977276,14.4871991 1.6165251,14.4871991 Z M2.53005324,15.4902755 C2.43757261,15.4902755 2.34734761,15.4532833 2.27967886,15.3806521 L2.12629636,15.2128336 C1.99998136,15.0745638 2.01125948,14.8607306 2.14885261,14.7348667 C2.28870136,14.6096795 2.50298574,14.6193787 2.62704512,14.7576485 L2.77817199,14.9234369 C2.90448699,15.0612556 2.89546449,15.2753145 2.75787137,15.4014039 C2.69245824,15.4607268 2.61125574,15.4902755 2.53005324,15.4902755 Z M3.445837,16.4886152 C3.355612,16.4886152 3.26313137,16.4516229 3.19771825,16.3794429 L3.04433575,16.2127522 C2.91802074,16.0749335 2.92704324,15.8608747 3.06463637,15.7347853 C3.2022295,15.6084703 3.41651388,15.6177183 3.54282888,15.755537 L3.69621138,15.9210999 C3.82252638,16.058693 3.81350388,16.2723007 3.67591076,16.3992924 C3.61049763,16.4590665 3.52929513,16.4886152 3.445837,16.4886152 Z M4.36613202,17.4837969 C4.27590702,17.4837969 4.18568201,17.4472558 4.11801326,17.3755269 L3.96463076,17.2106407 C3.83831576,17.0741754 3.84508263,16.8601166 3.98267576,16.7322227 C4.12026889,16.6054565 4.33229764,16.612449 4.46086827,16.7493654 L4.61425077,16.9151539 C4.7428214,17.0520703 4.7337989,17.2661291 4.59620577,17.3935719 C4.53079264,17.4537971 4.44959014,17.4837969 4.36613202,17.4837969 Z M5.28868266,18.4760464 C5.19845765,18.4760464 5.11048828,18.4401819 5.04281953,18.3689042 L4.8871814,18.2028902 C4.7608664,18.0657482 4.76763327,17.8516894 4.9052264,17.7244721 C5.04281953,17.5974804 5.25710391,17.6053751 5.38341891,17.7425171 L5.53680141,17.9067266 C5.66537204,18.0429664 5.65634954,18.2570252 5.52101203,18.3846936 C5.45559891,18.4460466 5.37214078,18.4760464 5.28868266,18.4760464 Z M5.96762579,19.3593491 L6.21574454,19.1283731 L5.95634767,19.3473943 L5.81424329,19.1940118 C5.68567266,19.0575465 5.69469516,18.8434877 5.83003266,18.7160449 C5.96762579,18.5888276 6.18191017,18.5962712 6.30822517,18.7322854 L6.45032955,18.8852168 L6.21574454,19.1283731 L5.96762579,19.3593491 Z M7.14280643,20.4553573 C7.05258143,20.4553573 6.96235643,20.4192673 6.89694331,20.3486663 L6.74130518,20.1840057 C6.61273455,20.0477659 6.61950143,19.8337071 6.75709455,19.7060387 C6.89243206,19.5776936 7.10671643,19.5844605 7.23528706,19.7204747 L7.38866956,19.8853609 C7.51724019,20.0213751 7.51047331,20.2354339 7.37513581,20.363779 C7.30972269,20.4249064 7.22626456,20.4553573 7.14280643,20.4553573 Z M8.07212395,21.4426444 C7.98189895,21.4426444 7.89167395,21.4070055 7.82626082,21.3364045 L7.67062269,21.172195 C7.54205207,21.0364064 7.54881894,20.8223475 7.68415644,20.6937769 C7.82174957,20.565883 8.03377832,20.5717476 8.16234895,20.7073107 L8.31798708,20.8721968 C8.4465577,21.008211 8.43979083,21.2222699 8.30445333,21.3506149 C8.2390402,21.4117424 8.15558207,21.4426444 8.07212395,21.4426444 Z M9.00369709,22.4285781 C8.91347209,22.4285781 8.82550271,22.3933904 8.75783396,22.3232404 L8.60219583,22.1590309 C8.4736252,22.0232423 8.48039208,21.8091835 8.61572958,21.6806129 C8.75106708,21.5518167 8.96535146,21.5572302 9.09392209,21.6932444 L9.24956022,21.8572283 C9.37813084,21.9923402 9.37136397,22.2066246 9.23602647,22.3356464 C9.17061334,22.3976761 9.08715521,22.4285781 9.00369709,22.4285781 Z M9.93978148,23.4154141 C9.8518121,23.4154141 9.76384272,23.3811286 9.69617397,23.3127831 C9.6894071,23.3053396 9.63301647,23.2471444 9.5360246,23.1449646 C9.40745397,23.0096271 9.41422084,22.7951172 9.54955835,22.6665466 C9.68489585,22.5377504 9.89918023,22.5431639 10.0277509,22.6787269 L10.183389,22.8418086 C10.3119596,22.9762439 10.3074484,23.1903027 10.1743665,23.3202267 C10.1089534,23.3836098 10.0232396,23.4154141 9.93978148,23.4154141 Z" id="Fill-201"></path>
                    <path d="M16.3686861,2.49142864 C16.3619193,2.49142864 16.3528968,2.49142864 16.3461299,2.49052639 C16.2762055,2.48624071 16.2062811,2.48263171 16.1363568,2.48127833 C15.9491399,2.47699264 15.8002686,2.32180564 15.8047799,2.13503989 C15.8092911,1.94827414 15.9716961,1.80030513 16.1521461,1.80459082 C16.231093,1.80639532 16.3122955,1.81022988 16.3912424,1.81564338 C16.5784593,1.82850045 16.718308,1.98955207 16.7070299,2.17609227 C16.6934961,2.35496333 16.5446249,2.49142864 16.3686861,2.49142864 Z M14.805538,2.64345777 C14.6544111,2.64345777 14.5190736,2.54421027 14.4784724,2.39308339 C14.4288486,2.21308452 14.5371186,2.02699545 14.715313,1.97827395 C14.7942599,1.9575222 14.8732067,1.93812382 14.9521536,1.92098107 C15.1348592,1.88037982 15.3153092,1.99677007 15.3536549,2.17902458 C15.3942561,2.36195577 15.2792192,2.54218021 15.0965136,2.58210477 C15.0288449,2.59676633 14.9611761,2.61345796 14.8935074,2.63150296 C14.8641842,2.63939765 14.8348611,2.64345777 14.805538,2.64345777 Z M17.6882268,2.77699077 C17.6476255,2.77699077 17.6092799,2.7702239 17.5686787,2.7557879 C17.5032655,2.73142715 17.4378524,2.70864534 17.3701836,2.68699134 C17.1919893,2.63060071 17.0949974,2.44000039 17.151388,2.26180602 C17.2077786,2.08428833 17.3972511,1.98481526 17.5754455,2.04255926 C17.6521368,2.06714558 17.728828,2.09353639 17.8055193,2.12128058 C17.9792024,2.18646814 18.0694274,2.38135414 18.0040143,2.55616508 C17.9543905,2.69285596 17.8258199,2.77699077 17.6882268,2.77699077 Z M13.5649442,3.17510859 C13.452163,3.17510859 13.3393817,3.11736459 13.2762242,3.01315472 C13.1792323,2.85345646 13.2288561,2.64526227 13.3890055,2.54781927 C13.4589298,2.50586465 13.5288542,2.46548896 13.5987786,2.42714333 C13.7634392,2.33804614 13.9687011,2.39804577 14.0589261,2.56225527 C14.1468955,2.72623921 14.0859936,2.93195221 13.9235886,3.02150053 C13.8626867,3.05443265 13.8017848,3.08916928 13.740883,3.12593597 C13.686748,3.15931922 13.6258461,3.17510859 13.5649442,3.17510859 Z M18.8724299,3.42006947 C18.8025055,3.42006947 18.7325812,3.39864103 18.6716793,3.35443078 C18.6152887,3.31270172 18.558898,3.27210047 18.5002518,3.23285259 C18.3446137,3.12886828 18.3040124,2.91886959 18.4077712,2.76368259 C18.5115299,2.60827002 18.721303,2.56721765 18.8769412,2.67120196 C18.9423543,2.71563777 19.0077674,2.76142696 19.0731805,2.80902065 C19.2243074,2.91954628 19.2558862,3.13157503 19.1453606,3.28179966 C19.0799474,3.37202466 18.9761887,3.42006947 18.8724299,3.42006947 Z M12.5183342,4.02773486 C12.4371317,4.02773486 12.3536736,3.99728392 12.2882604,3.93593092 C12.1506673,3.80871367 12.1439004,3.59465485 12.2724711,3.45796397 C12.3266061,3.39931772 12.3829967,3.34225041 12.4393873,3.28608534 C12.5724692,3.15571022 12.7890092,3.15751472 12.9175798,3.29104772 C13.0484061,3.42458072 13.0461505,3.63909066 12.9130686,3.76946579 C12.8634448,3.81886398 12.8138211,3.86893885 12.766453,3.92059267 C12.6987842,3.99141929 12.6085592,4.02773486 12.5183342,4.02773486 Z M19.8400931,4.35931174 C19.7408456,4.35931174 19.6415981,4.31532705 19.5761849,4.23074111 C19.5310724,4.17570386 19.4859599,4.12111773 19.4408474,4.06765942 C19.3190437,3.92623173 19.3348331,3.71262404 19.4769374,3.59059472 C19.6190418,3.46856541 19.8310706,3.48525704 19.9528743,3.6262336 C20.0047537,3.68668435 20.0566331,3.74826291 20.1062568,3.81096929 C20.2212937,3.95758492 20.1964818,4.17029036 20.0498662,4.28622948 C19.9889643,4.33562767 19.9145287,4.35931174 19.8400931,4.35931174 Z M20.5303143,5.51802632 C20.3994881,5.51802632 20.2754287,5.44133506 20.2212937,5.31366669 C20.1919706,5.24893025 20.1626474,5.1848705 20.1333243,5.12193856 C20.0521218,4.95366893 20.1220462,4.75156493 20.2889624,4.6699113 C20.4581343,4.58848324 20.6611406,4.65885874 20.7423431,4.82712837 C20.7761775,4.89908281 20.8100118,4.97171393 20.8415906,5.04524731 C20.9160262,5.21712594 20.8370793,5.41629763 20.6656518,5.49028213 C20.6205393,5.50922938 20.5754268,5.51802632 20.5303143,5.51802632 Z M20.9024925,6.81501071 C20.7378318,6.81501071 20.5934718,6.69568815 20.5686599,6.52832077 C20.5573818,6.45817083 20.5461037,6.38892314 20.5325699,6.32035214 C20.4964799,6.13696983 20.6160281,5.95900101 20.7987337,5.92245988 C20.9814393,5.88727213 21.1596337,6.00569245 21.1957237,6.18907476 C21.2115131,6.26734495 21.2250468,6.3458407 21.2385806,6.42546427 C21.2656481,6.61019996 21.1393331,6.78275527 20.9543718,6.81095059 C20.9363268,6.81365734 20.9205375,6.81501071 20.9024925,6.81501071 Z M20.9363268,8.16387448 C20.9250487,8.16387448 20.911515,8.16319779 20.9002368,8.16184442 C20.7152756,8.14244604 20.5799381,7.97552979 20.6002387,7.78989185 C20.6070056,7.71996747 20.6137724,7.65026866 20.6182837,7.58034429 C20.6295618,7.39380409 20.7874556,7.25508316 20.9746725,7.26297784 C21.1618893,7.27448153 21.3039937,7.4353076 21.2927156,7.62162222 C21.2882043,7.70192247 21.2814375,7.78154604 21.272415,7.86139516 C21.25437,8.03485273 21.1077543,8.16387448 20.9363268,8.16387448 Z M20.6160281,9.47461819 C20.5754268,9.47461819 20.5348256,9.46762575 20.4964799,9.45206194 C20.3205412,9.38529544 20.2348274,9.18950718 20.3002406,9.01514737 C20.3273081,8.94860643 20.3498643,8.88251662 20.3724206,8.81552455 C20.4333224,8.63890911 20.6250506,8.54417286 20.8009893,8.60372136 C20.9791837,8.66349543 21.07392,8.85567468 21.0130181,9.03274124 C20.9882062,9.10807912 20.9611387,9.18296587 20.9318156,9.25785262 C20.8799362,9.39228788 20.7536212,9.47461819 20.6160281,9.47461819 Z M19.9867087,10.6689716 C19.9212956,10.6689716 19.8536268,10.6500244 19.7972362,10.6103254 C19.6415981,10.5054388 19.6009968,10.294989 19.7070112,10.1407043 C19.7476124,10.0811558 19.7859581,10.0213817 19.8243037,9.96138207 C19.9235512,9.80326276 20.1333243,9.75612019 20.2912181,9.85559326 C20.4491118,9.95529188 20.4964799,10.1646139 20.3949768,10.3222821 C20.3543756,10.388823 20.3115187,10.455364 20.2664062,10.5210026 C20.2009931,10.6173178 20.0949787,10.6689716 19.9867087,10.6689716 Z M19.1318268,11.7191907 C19.0528799,11.7191907 18.9716774,11.6914465 18.9085199,11.6341536 C18.7686712,11.5103198 18.7551374,11.296261 18.8791968,11.1566378 L19.028068,10.9883681 C19.1498718,10.8478427 19.3641562,10.8336323 19.5040049,10.9565638 C19.6461093,11.0799465 19.6596431,11.2935542 19.5355837,11.4343052 L19.3844568,11.6055072 C19.3190437,11.680845 19.2265631,11.7191907 19.1318268,11.7191907 Z M18.2250655,12.7272295 C18.143863,12.7272295 18.0626605,12.6981319 17.9972474,12.6390345 C17.8596543,12.5136218 17.8483762,12.2993374 17.9746912,12.1610676 L18.125818,11.9941514 C18.252133,11.8563327 18.4664174,11.8457312 18.6040105,11.971144 C18.7416037,12.0967823 18.7528818,12.3108411 18.6265668,12.4493365 L18.4754399,12.6167039 C18.4077712,12.6902372 18.3175462,12.7272295 18.2250655,12.7272295 Z M17.3070261,13.7260203 C17.2258236,13.7260203 17.1423655,13.6960204 17.0769524,13.6360208 C16.9416149,13.5092547 16.9325924,13.2951959 17.0589074,13.1576027 L17.2122899,12.9920399 C17.3386049,12.8544467 17.5528893,12.8465521 17.6904824,12.9730926 C17.8280755,13.0998587 17.837098,13.3139176 17.7085274,13.4510596 L17.5551449,13.6170736 C17.4897318,13.6894791 17.3995068,13.7260203 17.3070261,13.7260203 Z M16.3844755,14.7198486 C16.303273,14.7198486 16.2198149,14.6898488 16.1544018,14.6291725 C16.0168086,14.5012786 16.0100418,14.2872198 16.1363568,14.1505289 L16.2919949,13.9854171 C16.4183099,13.8489518 16.6325943,13.8412827 16.7701874,13.9687255 C16.9055249,14.0959428 16.9145474,14.3102271 16.7859768,14.4466925 L16.6325943,14.6118042 C16.5649255,14.6837586 16.4747005,14.7198486 16.3844755,14.7198486 Z M15.4619249,15.7021733 C15.3784667,15.7021733 15.2972642,15.6730758 15.2318511,15.6128506 C15.0965136,15.4849567 15.0852355,15.2763113 15.2138061,15.1400716 L15.3671886,14.9758621 C15.4957592,14.8391712 15.7100436,14.8321788 15.8453811,14.9598471 C15.9807186,15.0877411 15.9874855,15.3017999 15.8611705,15.4382652 L15.7145549,15.5930011 C15.6468861,15.6651811 15.5544055,15.7021733 15.4619249,15.7021733 Z M14.5303517,16.6978062 C14.4468936,16.6978062 14.3634355,16.6675809 14.2980224,16.6062279 C14.1626848,16.4785595 14.155918,16.2645007 14.2844886,16.1282609 L14.4401267,15.962698 C14.5686974,15.8264583 14.7829817,15.8212703 14.9183192,15.9489387 C15.0536567,16.0775094 15.0604236,16.2917937 14.931853,16.4273568 L14.7762149,16.5913407 C14.7108017,16.6621674 14.6205767,16.6978062 14.5303517,16.6978062 Z M13.5987786,17.6841911 C13.5153205,17.6841911 13.4318623,17.6535146 13.3664492,17.5912593 C13.2288561,17.4626887 13.2243448,17.2486299 13.3529155,17.1128412 L13.5085536,16.9490829 C13.6371242,16.8132942 13.8514086,16.8072041 13.9867461,16.9357747 C14.1220836,17.0643453 14.1288505,17.2786297 14.0002798,17.4141927 L13.8446417,17.5786278 C13.776973,17.6485522 13.686748,17.6841911 13.5987786,17.6841911 Z" id="Fill-202"></path>
                </g>
            </g>
        </g>
    </g>
</svg>
