<svg width="28px" height="18px" viewBox="0 0 28 18" version="1.1" xmlns="http://www.w3.org/2000/svg" xmlns:xlink="http://www.w3.org/1999/xlink">
    <!-- Generator: Sketch 49.3 (51167) - http://www.bohemiancoding.com/sketch -->
    <desc>Created with Sketch.</desc>
    <defs></defs>
    <g id="Symbols" stroke="none" stroke-width="1" fill="none" fill-rule="evenodd">
        <g id="COMPONENTES/HEADER/Botón-Menú-Viajes" transform="translate(-6.000000, -5.000000)" fill="#692D79">
            <g id="ICONOS/AGENCIA/Viajes" transform="translate(6.000000, 0.000000)">
                <g id="Group" transform="translate(0.000000, 5.874126)">
                    <path d="M6.59361281,10.8126884 C5.11215827,10.8126884 3.68376666,10.6020031 3.40357086,9.83229679 C3.2655289,9.45302406 3.24516526,8.86384924 3.85470372,8.13506602 L0.0858645629,4.03923385 C0.0122421853,3.95934574 -0.0165410315,3.84773735 0.00930512233,3.74219889 C0.034955472,3.63666043 0.111710717,3.55109399 0.213920507,3.51369539 L2.243431,2.77512197 C2.32899743,2.7439891 2.42298344,2.75005903 2.50365477,2.79156952 C4.95238205,4.05450658 7.73241002,5.42650658 8.24717925,5.5768842 L22.0351233,0.55861847 C24.7828436,-0.441353558 27.3578646,-0.0648220894 27.8967177,1.41624085 C28.1669275,2.15833875 27.8767457,3.03691218 27.079431,3.89003106 C26.3359625,4.68617092 25.2271233,5.37912197 23.9575289,5.84102406 L18.7693051,7.72955553 C18.6013051,7.79045064 18.4143121,7.70410099 18.3528296,7.53512197 C18.2911513,7.36653455 18.3780883,7.18012896 18.5470674,7.11864644 L23.7352911,5.23011497 C24.9103121,4.80267441 25.929473,4.16905204 26.6046058,3.44633875 C27.2170813,2.7905905 27.4655569,2.13170938 27.2862002,1.63847861 C26.885389,0.537863225 24.5821443,0.323066023 22.2573611,1.16933176 L8.39559883,6.21461847 C8.23875967,6.27120588 8.00320722,6.35657651 2.3321303,3.4345905 L0.894340087,3.95797511 L4.53453589,7.91361148 C4.6516268,8.04108001 4.64829813,8.23825483 4.52689953,8.36161148 C4.05853589,8.83761148 3.8862282,9.25741567 4.01447995,9.60986323 C4.21713729,10.1669262 6.88457785,10.3932758 10.1505918,9.86245064 C10.3272072,9.83386323 10.4948156,9.9538912 10.5235988,10.131094 C10.552382,10.3084926 10.4319625,10.4753178 10.2549555,10.504101 C10.1178925,10.5264227 8.3196268,10.8126884 6.59361281,10.8126884" id="Fill-1"></path>
                    <path d="M8.9170254,14.7638213 C8.82147295,14.7638213 8.72827016,14.7215276 8.66541701,14.6443807 C8.57808834,14.5374716 8.56751491,14.387094 8.63976666,14.2692199 L12.7980604,7.46521987 C12.8916548,7.31190518 13.0919625,7.26354155 13.2448855,7.35733176 C13.3982002,7.45092616 13.4463681,7.65084225 13.3527737,7.80415693 L9.67870372,13.8155415 L11.8685778,13.0184227 L18.7677387,5.25850658 C18.8873751,5.12438071 19.092382,5.11224085 19.2267037,5.2314856 C19.3608296,5.35073036 19.3729695,5.55612896 19.2535289,5.69045064 L12.2999345,13.5118492 C12.2641023,13.5519891 12.2186758,13.5827304 12.1681583,13.6013318 L9.02824219,14.7442408 C8.9918226,14.7573597 8.9542282,14.7638213 8.9170254,14.7638213" id="Fill-3"></path>
                    <path d="M17.2954869,10.3733038 C17.2257806,10.3733038 17.1556827,10.3486325 17.0994869,10.2983108 C16.9786758,10.1898353 16.9686897,10.0042129 17.0769695,9.88359749 L17.2122702,9.73263246 C17.3205499,9.61142966 17.5059765,9.60144364 17.6269834,9.70991917 C17.7477946,9.81839469 17.7577806,10.0040171 17.6495009,10.1246325 L17.5142002,10.2755975 C17.4562422,10.3404087 17.3759625,10.3733038 17.2954869,10.3733038 Z M16.4840744,11.279094 C16.4143681,11.279094 16.3442702,11.2544227 16.2882702,11.204101 C16.1672632,11.0958213 16.1572772,10.9101989 16.2653611,10.7893877 L16.4006618,10.6384227 C16.5091373,10.5176115 16.6947597,10.5074297 16.8153751,10.6157094 C16.9361862,10.7239891 16.9463681,10.9096115 16.8380883,11.0304227 L16.7029834,11.1813877 C16.6448296,11.2461989 16.5647457,11.279094 16.4840744,11.279094 Z M15.6726618,12.1848842 C15.6027597,12.1848842 15.5328576,12.1602129 15.4768576,12.1098912 C15.3558506,12.0016115 15.3456688,11.8159891 15.4539485,11.6951779 L15.5892492,11.5440171 C15.6973331,11.4235975 15.8831513,11.4130241 16.0037667,11.5213038 C16.1247737,11.6295835 16.1349555,11.8152059 16.0266758,11.9360171 L15.8913751,12.0871779 C15.833417,12.1517933 15.7531373,12.1848842 15.6726618,12.1848842 Z M14.8610534,13.0904786 C14.7911513,13.0904786 14.7212492,13.0658073 14.6650534,13.0154856 C14.5442422,12.9070101 14.5342562,12.7213877 14.6425359,12.6007723 L14.7778366,12.4498073 C14.8861163,12.3288003 15.0715429,12.3186185 15.1925499,12.427094 C15.3133611,12.5355695 15.3233471,12.7211919 15.2150674,12.8418073 L15.0797667,12.9927723 C15.0218086,13.0575835 14.9415289,13.0904786 14.8610534,13.0904786 Z M14.049445,13.9962688 C13.9797387,13.9962688 13.9098366,13.9715975 13.8536408,13.9212758 C13.7328296,13.8129961 13.7226478,13.6273737 13.8309275,13.5065625 L13.9662282,13.3554017 C14.0743121,13.2349821 14.2603261,13.2244087 14.3807457,13.3326884 C14.5017527,13.4409681 14.5119345,13.6265905 14.4036548,13.7474017 L14.2683541,13.8985625 C14.210396,13.9631779 14.1301163,13.9962688 14.049445,13.9962688 Z M13.2380324,14.9018632 C13.1683261,14.9018632 13.0982282,14.8771919 13.0422282,14.8268702 C12.921417,14.7185905 12.9112352,14.5329681 13.0195149,14.4121569 L13.1546198,14.2611919 C13.2628995,14.1403807 13.4487177,14.1301989 13.5693331,14.2384786 C13.6901443,14.3467583 13.7003261,14.5323807 13.5920464,14.6531919 L13.4569415,14.8041569 C13.3989834,14.8689681 13.3187037,14.9018632 13.2380324,14.9018632 Z M12.1528855,15.4107583 C12.0350114,15.4107583 11.9237946,15.3392898 11.8787597,15.2225905 C11.82041,15.0714297 11.8957946,14.9014716 12.0473471,14.843122 L12.2364939,14.7702828 C12.3876548,14.7119332 12.5578086,14.7873178 12.6161583,14.9386744 C12.6743121,15.0900311 12.5989275,15.2599891 12.4475709,15.3183387 L12.258424,15.3911779 C12.2237667,15.4044926 12.1881303,15.4107583 12.1528855,15.4107583 Z M11.018396,15.8481849 C10.9003261,15.8481849 10.7891093,15.7765206 10.7440744,15.6600171 C10.6857247,15.5086604 10.7611093,15.3387024 10.9126618,15.2803527 L11.1018086,15.2075136 C11.2531653,15.1489681 11.4231233,15.2247443 11.481473,15.3759052 C11.5398226,15.5272618 11.4642422,15.6972199 11.3128855,15.7555695 L11.1237387,15.8284087 C11.0890813,15.8417234 11.053445,15.8481849 11.018396,15.8481849 Z" id="Fill-5"></path>
                    <path d="M24.524382,2.36177931 C24.3916268,2.36177931 24.2670953,2.27973735 24.2191233,2.14776532 C24.1576408,1.97898211 24.244382,1.79257651 24.4133611,1.73109399 L27.1321023,0.741499589 C27.3001023,0.68040868 27.4870953,0.766954134 27.548382,0.935737351 C27.6100604,1.10452057 27.5231233,1.29092616 27.3541443,1.35240868 L24.6355988,2.34200309 C24.5987876,2.35531777 24.5615848,2.36177931 24.524382,2.36177931" id="Fill-2"></path>
                    <path d="M18.1070953,9.46751357 C18.0371932,9.46751357 17.9670953,9.44284225 17.9110953,9.39252057 C17.7902841,9.28424085 17.7801023,9.09842267 17.888382,8.97780728 L17.9535848,8.90496812 C18.0620604,8.78415693 18.2478785,8.77397511 18.3684939,8.88205903 C18.4893051,8.99033875 18.4994869,9.17615693 18.3912072,9.29696812 L18.3258086,9.36980728 C18.2678506,9.43461847 18.1875709,9.46751357 18.1070953,9.46751357" id="Fill-4"></path>
                    <path d="M9.98141701,16.2478213 C9.86354288,16.2478213 9.7523261,16.1761569 9.70729114,16.0596534 C9.64894149,15.9082968 9.7243261,15.7383387 9.87568274,15.6799891 L9.9669275,15.6449401 C10.1186758,15.5865905 10.2882422,15.6617793 10.3467876,15.8133318 C10.4051373,15.9644926 10.3295569,16.1346464 10.178396,16.1928003 L10.0869555,16.228045 C10.0521023,16.2413597 10.016466,16.2478213 9.98141701,16.2478213" id="Fill-6"></path>
                    <path d="M2.93461981,1.91299609 C2.88860582,1.91299609 2.84161281,1.90203106 2.79794848,1.87892616 L2.62466177,1.7874856 C2.48113729,1.71170938 2.42631212,1.53411497 2.50208834,1.3907863 C2.57786456,1.24726183 2.75565477,1.19224085 2.89898344,1.26821288 L3.07207435,1.35965344 C3.21559883,1.43523385 3.270424,1.61282826 3.19484358,1.75635274 C3.14197645,1.85621288 3.04015827,1.91299609 2.93461981,1.91299609 Z M3.97375267,2.46105204 C3.92773869,2.46105204 3.88074568,2.450087 3.83708135,2.42698211 L3.66399044,2.33554155 C3.52046596,2.25976532 3.46544498,2.08217092 3.54122121,1.93864644 C3.61699743,1.79512197 3.79459184,1.74010099 3.93811631,1.81626882 L4.11120722,1.90751357 C4.2547317,1.9832898 4.30955687,2.1608842 4.23397645,2.30440868 C4.18130512,2.40407302 4.07929114,2.46105204 3.97375267,2.46105204 Z M5.01308135,3.00910798 C4.96687156,3.00910798 4.91987855,2.99833875 4.87621421,2.97523385 L4.7031233,2.8837933 C4.55959883,2.80801707 4.50457785,2.63042267 4.58035407,2.48689819 C4.6561303,2.34337371 4.8337247,2.28854854 4.97724918,2.36432476 L5.15034009,2.45576532 C5.29386456,2.53154155 5.34868974,2.70913595 5.27310932,2.85246462 C5.22043799,2.95232476 5.118424,3.00910798 5.01308135,3.00910798 Z M6.05221421,3.55716392 C6.00600442,3.55716392 5.95920722,3.54639469 5.91534708,3.5232898 L5.74225617,3.43204504 C5.5987317,3.35626882 5.54371072,3.17847861 5.61948694,3.03495413 C5.69506736,2.89182127 5.87266177,2.83699609 6.01618624,2.9121849 L6.18947295,3.00362546 C6.33299743,3.07940169 6.38801841,3.25699609 6.31224219,3.40052057 C6.25957086,3.5001849 6.15755687,3.55716392 6.05221421,3.55716392 Z M7.09115128,4.10521987 C7.04513729,4.10521987 6.99834009,4.09425483 6.95467575,4.07134574 L6.78138904,3.98010099 C6.63786456,3.90452057 6.58284358,3.72692616 6.658424,3.58340169 C6.73400442,3.43987721 6.91120722,3.38466043 7.05531911,3.46043665 L7.22841002,3.55168141 C7.37193449,3.62726183 7.42695547,3.80485623 7.35137505,3.94838071 C7.29870372,4.04824085 7.19668974,4.10521987 7.09115128,4.10521987 Z M8.13047995,4.65347162 C8.08427016,4.65347162 8.03727715,4.64250658 7.99361281,4.61940169 L7.8203261,4.52796113 C7.67699743,4.4521849 7.62197645,4.2745905 7.69775267,4.13126183 C7.77333309,3.98754155 7.95131911,3.93271637 8.09464778,4.0086884 L8.26773869,4.10012896 C8.41126316,4.17570938 8.46608834,4.35330378 8.39050792,4.49682826 C8.33783659,4.5966884 8.2358226,4.65347162 8.13047995,4.65347162 Z" id="Fill-7"></path>
                </g>
            </g>
        </g>
    </g>
</svg>
