<svg width="28px" height="26px" viewBox="0 0 28 26" version="1.1" xmlns="http://www.w3.org/2000/svg" xmlns:xlink="http://www.w3.org/1999/xlink">
    <!-- Generator: Sketch 49.3 (51167) - http://www.bohemiancoding.com/sketch -->
    <desc>Created with Sketch.</desc>
    <defs></defs>
    <g id="Symbols" stroke="none" stroke-width="1" fill="none" fill-rule="evenodd">
        <g id="COMPONENTES/HEADER/Botón-Menú-Aliados" transform="translate(0.000000, -1.000000)" fill="#692D79">
            <g id="ICONOS/AGENCIA/Aliados">
                <g id="Group" transform="translate(0.000000, 1.486726)">
                    <path d="M3.08371681,24.896708 C2.87854867,24.896708 2.7120354,24.7301947 2.7120354,24.5250265 L2.7120354,14.7101593 C2.7120354,14.5049912 2.87854867,14.3384779 3.08371681,14.3384779 C3.28888496,14.3384779 3.45539823,14.5049912 3.45539823,14.7101593 L3.45539823,24.5250265 C3.45539823,24.7301947 3.28888496,24.896708 3.08371681,24.896708" id="Fill-12"></path>
                    <path d="M20.5624071,10.4492035 C20.6969558,10.4492035 20.8210973,10.5218053 20.8865133,10.6395044 C21.3233628,11.4195398 22.1487434,11.9039646 23.0410265,11.9039646 C24.4016283,11.9039646 25.5087434,10.7968496 25.5087434,9.43624779 C25.5087434,9.3019469 25.4983363,9.16888496 25.4775221,9.04077876 L22.7466549,2.67412389 L3.5079292,2.67412389 L0.774584071,9.04102655 C0.754017699,9.16913274 0.743362832,9.3019469 0.743362832,9.43624779 C0.743362832,10.7968496 1.85047788,11.9039646 3.21107965,11.9039646 C4.10336283,11.9039646 4.92874336,11.4195398 5.36534513,10.6395044 C5.43076106,10.5223009 5.55490265,10.4492035 5.68945133,10.4492035 C5.824,10.4492035 5.94814159,10.5218053 6.01380531,10.6395044 C6.45065487,11.4195398 7.27628319,11.9039646 8.16831858,11.9039646 C9.06060177,11.9039646 9.88623009,11.4195398 10.3230796,10.6395044 C10.3884956,10.5218053 10.5126372,10.4492035 10.6471858,10.4492035 C10.7817345,10.4492035 10.9058761,10.5218053 10.9715398,10.6395044 C11.4083894,11.4195398 12.2340177,11.9039646 13.1260531,11.9039646 C14.0185841,11.9039646 14.8439646,11.4195398 15.2803186,10.6395044 C15.3459823,10.5223009 15.4701239,10.4492035 15.6046726,10.4492035 C15.7392212,10.4492035 15.8633628,10.5218053 15.9290265,10.6395044 C16.3656283,11.4195398 17.1912566,11.9039646 18.0837876,11.9039646 C18.9763186,11.9039646 19.8016991,11.4195398 20.2380531,10.6395044 C20.3037168,10.5223009 20.4278584,10.4492035 20.5624071,10.4492035 Z M23.0410265,12.6473274 C22.0736637,12.6473274 21.1665133,12.2097345 20.5624071,11.4767788 C19.9583009,12.2097345 19.0511504,12.6473274 18.0837876,12.6473274 C17.116177,12.6473274 16.2090265,12.2097345 15.6046726,11.4767788 C15.0008142,12.2097345 14.0934159,12.6473274 13.1260531,12.6473274 C12.1586903,12.6473274 11.2515398,12.2097345 10.6471858,11.4767788 C10.0430796,12.2097345 9.1359292,12.6473274 8.16831858,12.6473274 C7.20095575,12.6473274 6.29380531,12.2097345 5.68945133,11.4767788 C5.08559292,12.2097345 4.17844248,12.6473274 3.21107965,12.6473274 C1.44038938,12.6473274 0,11.2066903 0,9.43624779 C0,9.24371681 0.0168495575,9.05292035 0.0500530973,8.86906195 C0.0550088496,8.84106195 0.0631858407,8.8140531 0.0743362832,8.7880354 L2.92166372,2.15575221 C2.98014159,2.01922124 3.11444248,1.93076106 3.26286726,1.93076106 L22.9919646,1.93076106 C23.1403894,1.93076106 23.2749381,2.01922124 23.3334159,2.156 L26.1780177,8.78828319 C26.1891681,8.81430088 26.1970973,8.84106195 26.2023009,8.86906195 C26.2352566,9.05292035 26.2521062,9.24371681 26.2521062,9.43624779 C26.2521062,11.2066903 24.811469,12.6473274 23.0410265,12.6473274 Z" id="Fill-15"></path>
                    <path d="M10.5877168,10.9705487 C10.5812743,10.9705487 10.5745841,10.9703009 10.5678938,10.9700531 C10.3629735,10.9591504 10.2053805,10.7842124 10.2162832,10.579292 L10.636531,2.62828319 C10.6476814,2.42336283 10.8248496,2.2699823 11.027292,2.27667257 C11.2324602,2.28757522 11.3898053,2.46251327 11.3789027,2.66743363 L10.9586549,10.6184425 C10.9482478,10.8169204 10.7839646,10.9705487 10.5877168,10.9705487" id="Fill-17"></path>
                    <path d="M15.527115,10.9705487 C15.3306195,10.9705487 15.1665841,10.8169204 15.156177,10.6184425 L14.7359292,2.66743363 C14.7250265,2.46251327 14.8826195,2.28757522 15.0875398,2.27667257 C15.2882478,2.26899115 15.4673982,2.42311504 15.4783009,2.62828319 L15.8985487,10.579292 C15.9094513,10.7842124 15.7518584,10.9591504 15.5469381,10.9700531 C15.5402478,10.9703009 15.5335575,10.9705487 15.527115,10.9705487" id="Fill-18"></path>
                    <path d="M5.95012389,0.743362832 L5.70233628,0.743362832 C5.49716814,0.743362832 5.33065487,0.576849558 5.33065487,0.371681416 C5.33065487,0.166265487 5.49716814,0 5.70233628,0 L5.95012389,0 C6.15529204,0 6.32180531,0.166265487 6.32180531,0.371681416 C6.32180531,0.576849558 6.15529204,0.743362832 5.95012389,0.743362832 Z M7.43684956,0.743362832 L7.18906195,0.743362832 C6.98389381,0.743362832 6.81738053,0.576849558 6.81738053,0.371681416 C6.81738053,0.166265487 6.98389381,0 7.18906195,0 L7.43684956,0 C7.6420177,0 7.80853097,0.166265487 7.80853097,0.371681416 C7.80853097,0.576849558 7.6420177,0.743362832 7.43684956,0.743362832 Z M8.92357522,0.743362832 L8.67578761,0.743362832 C8.47061947,0.743362832 8.30410619,0.576849558 8.30410619,0.371681416 C8.30410619,0.166265487 8.47061947,0 8.67578761,0 L8.92357522,0 C9.12874336,0 9.29525664,0.166265487 9.29525664,0.371681416 C9.29525664,0.576849558 9.12874336,0.743362832 8.92357522,0.743362832 Z M10.4103009,0.743362832 L10.1625133,0.743362832 C9.95734513,0.743362832 9.79083186,0.576849558 9.79083186,0.371681416 C9.79083186,0.166265487 9.95734513,0 10.1625133,0 L10.4103009,0 C10.615469,0 10.7819823,0.166265487 10.7819823,0.371681416 C10.7819823,0.576849558 10.615469,0.743362832 10.4103009,0.743362832 Z M11.8970265,0.743362832 L11.6492389,0.743362832 C11.4440708,0.743362832 11.2775575,0.576849558 11.2775575,0.371681416 C11.2775575,0.166265487 11.4440708,0 11.6492389,0 L11.8970265,0 C12.1021947,0 12.268708,0.166265487 12.268708,0.371681416 C12.268708,0.576849558 12.1021947,0.743362832 11.8970265,0.743362832 Z M13.3837522,0.743362832 L13.1359646,0.743362832 C12.9307965,0.743362832 12.7642832,0.576849558 12.7642832,0.371681416 C12.7642832,0.166265487 12.9307965,0 13.1359646,0 L13.3837522,0 C13.5889204,0 13.7554336,0.166265487 13.7554336,0.371681416 C13.7554336,0.576849558 13.5889204,0.743362832 13.3837522,0.743362832 Z M14.8704779,0.743362832 L14.6226903,0.743362832 C14.4175221,0.743362832 14.2510088,0.576849558 14.2510088,0.371681416 C14.2510088,0.166265487 14.4175221,0 14.6226903,0 L14.8704779,0 C15.075646,0 15.2421593,0.166265487 15.2421593,0.371681416 C15.2421593,0.576849558 15.075646,0.743362832 14.8704779,0.743362832 Z M16.3572035,0.743362832 L16.1094159,0.743362832 C15.9042478,0.743362832 15.7377345,0.576849558 15.7377345,0.371681416 C15.7377345,0.166265487 15.9042478,0 16.1094159,0 L16.3572035,0 C16.5623717,0 16.728885,0.166265487 16.728885,0.371681416 C16.728885,0.576849558 16.5623717,0.743362832 16.3572035,0.743362832 Z M17.8439292,0.743362832 L17.5961416,0.743362832 C17.3909735,0.743362832 17.2244602,0.576849558 17.2244602,0.371681416 C17.2244602,0.166265487 17.3909735,0 17.5961416,0 L17.8439292,0 C18.0490973,0 18.2156106,0.166265487 18.2156106,0.371681416 C18.2156106,0.576849558 18.0490973,0.743362832 17.8439292,0.743362832 Z M19.3306549,0.743362832 L19.0828673,0.743362832 C18.8776991,0.743362832 18.7111858,0.576849558 18.7111858,0.371681416 C18.7111858,0.166265487 18.8776991,0 19.0828673,0 L19.3306549,0 C19.535823,0 19.7023363,0.166265487 19.7023363,0.371681416 C19.7023363,0.576849558 19.535823,0.743362832 19.3306549,0.743362832 Z M20.8173805,0.743362832 L20.5695929,0.743362832 C20.3644248,0.743362832 20.1979115,0.576849558 20.1979115,0.371681416 C20.1979115,0.166265487 20.3644248,0 20.5695929,0 L20.8173805,0 C21.0225487,0 21.1890619,0.166265487 21.1890619,0.371681416 C21.1890619,0.576849558 21.0225487,0.743362832 20.8173805,0.743362832 Z M22.3041062,0.743362832 L22.0563186,0.743362832 C21.8511504,0.743362832 21.6846372,0.576849558 21.6846372,0.371681416 C21.6846372,0.166265487 21.8511504,0 22.0563186,0 L22.3041062,0 C22.5092743,0 22.6757876,0.166265487 22.6757876,0.371681416 C22.6757876,0.576849558 22.5092743,0.743362832 22.3041062,0.743362832 Z M23.7908319,0.743362832 L23.5430442,0.743362832 C23.3378761,0.743362832 23.1713628,0.576849558 23.1713628,0.371681416 C23.1713628,0.166265487 23.3378761,0 23.5430442,0 L23.7908319,0 C23.996,0 24.1625133,0.166265487 24.1625133,0.371681416 C24.1625133,0.576849558 23.996,0.743362832 23.7908319,0.743362832 Z M24.5242832,1.91019469 C24.3825487,1.91019469 24.2472566,1.82867257 24.1853097,1.69115044 L24.083469,1.46516814 C23.9989735,1.2780885 24.0822301,1.05780531 24.2695575,0.973557522 C24.4571327,0.888814159 24.6764248,0.972318584 24.7609204,1.15964602 L24.8627611,1.38562832 C24.9472566,1.57270796 24.864,1.79299115 24.6766726,1.87723894 C24.627115,1.89978761 24.5753274,1.91019469 24.5242832,1.91019469 Z M25.135823,3.26509735 C24.9943363,3.26509735 24.8587965,3.18382301 24.7968496,3.04654867 L24.6950088,2.82056637 C24.6105133,2.63348673 24.6937699,2.41345133 24.8808496,2.32895575 C25.0679292,2.2439646 25.2882124,2.32771681 25.3724602,2.51479646 L25.4743009,2.74053097 C25.5587965,2.92761062 25.4755398,3.14789381 25.2884602,3.23238938 C25.2389027,3.25469027 25.1868673,3.26509735 25.135823,3.26509735 Z M25.7473628,4.62024779 C25.6056283,4.62024779 25.4703363,4.53897345 25.4083894,4.40145133 L25.3063009,4.17571681 C25.2220531,3.98863717 25.3053097,3.76860177 25.4921416,3.68410619 C25.6792212,3.59911504 25.8995044,3.68286726 25.984,3.8699469 L26.0858407,4.09568142 C26.1703363,4.28276106 26.0870796,4.50304425 25.9,4.58729204 C25.8504425,4.60984071 25.7984071,4.62024779 25.7473628,4.62024779 Z M26.3586549,5.97539823 C26.2171681,5.97539823 26.0816283,5.89412389 26.0196814,5.75660177 L25.9178407,5.53086726 C25.8333451,5.34378761 25.9166018,5.12350442 26.1036814,5.03925664 C26.2910088,4.95426549 26.511292,5.0380177 26.5955398,5.22509735 L26.6973805,5.45083186 C26.7818761,5.6379115 26.6986195,5.8579469 26.5115398,5.94244248 C26.4617345,5.96499115 26.4099469,5.97539823 26.3586549,5.97539823 Z M26.9704425,7.33079646 C26.8289558,7.33079646 26.6936637,7.24952212 26.631469,7.112 L26.5293805,6.8860177 C26.444885,6.69893805 26.5278938,6.47890265 26.7152212,6.39415929 C26.9025487,6.31015929 27.1223363,6.39292035 27.2068319,6.58 L27.3089204,6.8059823 C27.3934159,6.99306195 27.3104071,7.21309735 27.1230796,7.29784071 C27.0735221,7.32014159 27.0214867,7.33079646 26.9704425,7.33079646 Z M27.5819823,8.68569912 C27.4404956,8.68569912 27.3052035,8.60442478 27.2430088,8.46690265 L27.1409204,8.24092035 C27.0564248,8.05384071 27.1394336,7.8340531 27.3267611,7.74930973 C27.5138407,7.66555752 27.7338761,7.74831858 27.8183717,7.93515044 L27.9204602,8.16113274 C28.0049558,8.34821239 27.9216991,8.56824779 27.7346195,8.65274336 C27.6850619,8.67504425 27.6330265,8.68569912 27.5819823,8.68569912 Z" id="Fill-21"></path>
                    <path d="M20.0856637,16.3012035 C19.9905133,16.3012035 19.8953628,16.2647788 19.8230088,16.192177 C19.6778053,16.0469735 19.6778053,15.811823 19.8230088,15.6666195 L19.9981947,15.4914336 C20.1431504,15.3462301 20.3785487,15.3462301 20.5237522,15.4914336 C20.6689558,15.6366372 20.6689558,15.8717876 20.5237522,16.0169912 L20.3485664,16.192177 C20.2759646,16.2647788 20.1808142,16.3012035 20.0856637,16.3012035 Z M19.0345487,17.3523186 C18.9393982,17.3523186 18.8442478,17.3158938 18.771646,17.2435398 C18.6264425,17.0980885 18.6264425,16.8629381 18.771646,16.7177345 L18.9468319,16.5425487 C19.0920354,16.3973451 19.3274336,16.3973451 19.4723894,16.5425487 C19.6175929,16.6877522 19.6175929,16.9229027 19.4723894,17.0681062 L19.2972035,17.2435398 C19.2246018,17.3158938 19.1296991,17.3523186 19.0345487,17.3523186 Z M17.9831858,18.4036814 C17.8880354,18.4036814 17.792885,18.3675044 17.7202832,18.2949027 C17.5750796,18.1496991 17.5750796,17.9145487 17.7202832,17.7693451 L17.895469,17.5939115 C18.0406726,17.4489558 18.275823,17.4489558 18.4210265,17.5939115 C18.5662301,17.739115 18.5662301,17.9745133 18.4210265,18.1197168 L18.2458407,18.2949027 C18.1732389,18.3675044 18.0783363,18.4036814 17.9831858,18.4036814 Z M16.9320708,19.4547965 C16.8369204,19.4547965 16.7417699,19.4186195 16.6691681,19.3460177 C16.5239646,19.2008142 16.5239646,18.9656637 16.6691681,18.8204602 L16.844354,18.6452743 C16.9895575,18.5000708 17.224708,18.5000708 17.3699115,18.6452743 C17.515115,18.7904779 17.515115,19.0256283 17.3699115,19.1708319 L17.1947257,19.3460177 C17.1221239,19.4186195 17.0269735,19.4547965 16.9320708,19.4547965 Z M15.8804602,20.5061593 C15.7855575,20.5061593 15.6904071,20.4699823 15.6178053,20.3973805 C15.4726018,20.252177 15.4726018,20.0170265 15.6178053,19.871823 L15.7932389,19.6963894 C15.9384425,19.5511858 16.1735929,19.5511858 16.3187965,19.6963894 C16.464,19.8415929 16.464,20.0767434 16.3187965,20.2219469 L16.1433628,20.3973805 C16.0707611,20.4699823 15.9756106,20.5061593 15.8804602,20.5061593 Z M14.8293451,21.5575221 C14.7341947,21.5575221 14.639292,21.5210973 14.5666903,21.4484956 C14.4214867,21.303292 14.4214867,21.0681416 14.5666903,20.9229381 L14.7418761,20.7477522 C14.8870796,20.6025487 15.1222301,20.6025487 15.2674336,20.7477522 C15.4126372,20.8929558 15.4126372,21.1281062 15.2674336,21.2733097 L15.0922478,21.4484956 C15.019646,21.5210973 14.9244956,21.5575221 14.8293451,21.5575221 Z" id="Fill-22"></path>
                    <path d="M23.1683894,24.896708 C22.9632212,24.896708 22.796708,24.7301947 22.796708,24.5250265 L22.796708,14.7101593 C22.796708,14.5049912 22.9632212,14.3384779 23.1683894,14.3384779 C23.3738053,14.3384779 23.5400708,14.5049912 23.5400708,14.7101593 L23.5400708,24.5250265 C23.5400708,24.7301947 23.3738053,24.896708 23.1683894,24.896708" id="Fill-14"></path>
                    <path d="M25.8420177,24.896708 L0.410088496,24.896708 C0.204920354,24.896708 0.0384070796,24.7301947 0.0384070796,24.5250265 C0.0384070796,24.3198584 0.204920354,24.1533451 0.410088496,24.1533451 L25.8420177,24.1533451 C26.0471858,24.1533451 26.2136991,24.3198584 26.2136991,24.5250265 C26.2136991,24.7301947 26.0471858,24.896708 25.8420177,24.896708" id="Fill-11"></path>
                    <path d="M9.35472566,24.896708 C9.14955752,24.896708 8.98304425,24.7301947 8.98304425,24.5250265 L8.98304425,14.7101593 C8.98304425,14.5049912 9.14955752,14.3384779 9.35472566,14.3384779 C9.56014159,14.3384779 9.72640708,14.5049912 9.72640708,14.7101593 L9.72640708,24.5250265 C9.72640708,24.7301947 9.56014159,24.896708 9.35472566,24.896708" id="Fill-13"></path>
                    <path d="M5.6480708,10.9705487 C5.62874336,10.9705487 5.60916814,10.9690619 5.58934513,10.9660885 C5.38690265,10.9338761 5.24838938,10.7433274 5.28060177,10.5406372 L6.54159292,2.58962832 C6.57380531,2.38669027 6.76286726,2.24743363 6.96704425,2.28088496 C7.16948673,2.31309735 7.308,2.50339823 7.27578761,2.7060885 L6.01479646,10.6570973 C5.98580531,10.8402124 5.82771681,10.9705487 5.6480708,10.9705487" id="Fill-16"></path>
                    <path d="M20.4665133,10.9705487 C20.287115,10.9705487 20.1290265,10.8402124 20.1000354,10.6570973 L18.8390442,2.7060885 C18.8068319,2.50339823 18.9453451,2.31309735 19.1477876,2.28088496 C19.3512212,2.24743363 19.5410265,2.38669027 19.5732389,2.58962832 L20.8342301,10.5406372 C20.8661947,10.7433274 20.7279292,10.9338761 20.5252389,10.9660885 C20.5054159,10.9690619 20.4858407,10.9705487 20.4665133,10.9705487" id="Fill-19"></path>
                    <path d="M7.26835398,20.1144071 C7.06293805,20.1144071 6.89667257,19.9478938 6.89667257,19.7427257 L6.89667257,17.8900177 C6.89667257,17.6848496 7.06293805,17.5183363 7.26835398,17.5183363 C7.47352212,17.5183363 7.6400354,17.6848496 7.6400354,17.8900177 L7.6400354,19.7427257 C7.6400354,19.9478938 7.47352212,20.1144071 7.26835398,20.1144071" id="Fill-20"></path>
                    <path d="M19.6094159,19.1629027 C19.5135221,19.1629027 19.4178761,19.1259823 19.3452743,19.0523894 C19.2008142,18.9064425 19.2023009,18.6710442 19.3482478,18.5268319 L19.524177,18.3526372 C19.6698761,18.2084248 19.9057699,18.2096637 20.0499823,18.3556106 C20.1944425,18.5015575 20.1929558,18.7369558 20.0470088,18.8811681 L19.8708319,19.0553628 C19.7984779,19.1269735 19.703823,19.1629027 19.6094159,19.1629027 Z M18.5530973,20.2088142 C18.4572035,20.2088142 18.3615575,20.1721416 18.2889558,20.0987965 C18.1444956,19.9528496 18.1454867,19.7176991 18.2914336,19.5732389 L18.4676106,19.3987965 C18.6138053,19.2543363 18.8489558,19.2555752 18.9931681,19.4012743 C19.1376283,19.5469735 19.1366372,19.7823717 18.9906903,19.9268319 L18.8145133,20.1012743 C18.7419115,20.1731327 18.6475044,20.2088142 18.5530973,20.2088142 Z M17.496531,21.2547257 C17.4006372,21.2547257 17.3047434,21.2180531 17.2321416,21.1444602 C17.0876814,20.9985133 17.0891681,20.763115 17.235115,20.6189027 L17.411292,20.4444602 C17.5572389,20.3002478 17.792885,20.3014867 17.9368496,20.4474336 C18.0813097,20.5933805 18.079823,20.8287788 17.9338761,20.9729912 L17.7579469,21.1471858 C17.6855929,21.2187965 17.5909381,21.2547257 17.496531,21.2547257 Z M16.4399646,22.300885 C16.3440708,22.300885 16.2484248,22.2639646 16.175823,22.1903717 C16.0313628,22.0444248 16.0328496,21.8090265 16.1785487,21.6648142 L16.3547257,21.4906195 C16.5004248,21.3464071 16.7360708,21.347646 16.880531,21.4935929 C17.0249912,21.6395398 17.0235044,21.8749381 16.8775575,22.0191504 L16.7013805,22.1933451 C16.6290265,22.2649558 16.5343717,22.300885 16.4399646,22.300885 Z" id="Fill-23"></path>
                </g>
            </g>
        </g>
    </g>
</svg>
