<svg width="22px" height="24px" viewBox="0 0 22 24" version="1.1" xmlns="http://www.w3.org/2000/svg" xmlns:xlink="http://www.w3.org/1999/xlink">
    <!-- Generator: Sketch 49.3 (51167) - http://www.bohemiancoding.com/sketch -->
    <desc>Created with Sketch.</desc>
    <defs></defs>
    <g id="Symbols" stroke="none" stroke-width="1" fill="none" fill-rule="evenodd">
        <g id="COMPONENTES/MI-CUENTA/Menú-dashboard" transform="translate(-9.000000, -300.000000)" fill="#767676">
            <g id="Group-9" transform="translate(8.000000, 300.000000)">
                <g id="ICONOS/MI-CUENTA/Salir-Gris">
                    <path d="M8.5,14 C8.224,14 8,13.776 8,13.5 L8,11.5 C8,11.224 8.224,11 8.5,11 C8.776,11 9,11.224 9,11.5 L9,13.5 C9,13.776 8.776,14 8.5,14" id="Fill-7"></path>
                    <path d="M22.5,11 L12.5,11 C12.224,11 12,10.776 12,10.5 C12,10.224 12.224,10 12.5,10 L22.5,10 C22.776,10 23,10.224 23,10.5 C23,10.776 22.776,11 22.5,11" id="Fill-8"></path>
                    <path d="M19.50025,14.00025 C19.37225,14.00025 19.24425,13.95125 19.14625,13.85425 C18.95125,13.65825 18.95125,13.34225 19.14625,13.14625 L21.79325,10.50025 L19.14625,7.85425 C18.95125,7.65825 18.95125,7.34225 19.14625,7.14625 C19.34225,6.95125 19.65825,6.95125 19.85425,7.14625 L22.85425,10.14625 C23.04925,10.34225 23.04925,10.65825 22.85425,10.85425 L19.85425,13.85425 C19.75625,13.95125 19.62825,14.00025 19.50025,14.00025" id="Fill-9"></path>
                    <path d="M15.5,21 L10.5,21 C10.224,21 10,20.776 10,20.5 C10,20.224 10.224,20 10.5,20 L15.5,20 C16.327,20 17,19.327 17,18.5 L17,13.5 C17,13.224 17.224,13 17.5,13 C17.776,13 18,13.224 18,13.5 L18,18.5 C18,19.879 16.878,21 15.5,21" id="Fill-10"></path>
                    <path d="M17.5,8 C17.224,8 17,7.776 17,7.5 L17,2.5 C17,1.673 16.327,1 15.5,1 L3.5,1 C3.224,1 3,0.776 3,0.5 C3,0.225 3.224,0 3.5,0 L15.5,0 C16.878,0 18,1.121 18,2.5 L18,7.5 C18,7.776 17.776,8 17.5,8" id="Fill-11"></path>
                    <path d="M8.5,14 C8.224,14 8,13.776 8,13.5 L8,11.5 C8,11.224 8.224,11 8.5,11 C8.776,11 9,11.224 9,11.5 L9,13.5 C9,13.776 8.776,14 8.5,14" id="Fill-12"></path>
                    <path d="M3.159,1 C2.52,1 2,1.52 2,2.159 L2,19.406 C2,19.871 2.276,20.289 2.702,20.472 L8.384,22.906 C9.12,23.223 10,22.639 10,21.841 L10,4.595 C10,4.129 9.724,3.711 9.298,3.529 L3.616,1.095 C3.471,1.031 3.317,1 3.159,1 M8.841,24 C8.548,24 8.262,23.941 7.991,23.826 L2.309,21.391 C1.514,21.051 1,20.271 1,19.406 L1,2.159 C1,0.97 1.969,0 3.159,0 C3.452,0 3.738,0.059 4.009,0.174 L9.691,2.609 C10.486,2.949 11,3.729 11,4.595 L11,21.841 C11,23.031 10.031,24 8.841,24" id="Fill-13"></path>
                </g>
            </g>
        </g>
    </g>
</svg>
