<svg width="23px" height="22px" viewBox="0 0 23 22" version="1.1" xmlns="http://www.w3.org/2000/svg" xmlns:xlink="http://www.w3.org/1999/xlink">
    <!-- Generator: Sketch 49.3 (51167) - http://www.bohemiancoding.com/sketch -->
    <desc>Created with Sketch.</desc>
    <defs></defs>
    <g id="Symbols" stroke="none" stroke-width="1" fill="none" fill-rule="evenodd">
        <g id="COMPONENTES/MI-CUENTA/Menú-dashboard" transform="translate(-8.000000, -101.000000)" fill="#767676">
            <g id="Group-3" transform="translate(8.000000, 100.000000)">
                <g id="ICONOS/MI-CUENTA/Mis-compras-Gris">
                    <path d="M1,11 L22,11 L22,8.5 C22,7.673 21.327,7 20.5,7 L2.5,7 C1.673,7 1,7.673 1,8.5 L1,11 Z M22.5,12 L0.5,12 C0.224,12 0,11.776 0,11.5 L0,8.5 C0,7.121 1.122,6 2.5,6 L20.5,6 C21.878,6 23,7.121 23,8.5 L23,11.5 C23,11.776 22.776,12 22.5,12 Z" id="Fill-1"></path>
                    <path d="M2,12 L2,20.5 C2,21.327 2.673,22 3.5,22 L19.5,22 C20.327,22 21,21.327 21,20.5 L21,12 L2,12 Z M19.5,23 L3.5,23 C2.122,23 1,21.879 1,20.5 L1,11.5 C1,11.224 1.224,11 1.5,11 L21.5,11 C21.776,11 22,11.224 22,11.5 L22,20.5 C22,21.879 20.878,23 19.5,23 Z" id="Fill-2"></path>
                    <path d="M7.49012955,1.99983375 C7.36612955,1.99983375 7.24412955,2.05183375 7.14812955,2.14783375 C7.09912955,2.19683375 6.94612955,2.37483375 7.01812955,2.61683375 C7.53012955,4.33883375 9.04312955,5.58783375 10.8001295,5.79983375 C10.5871295,4.04283375 9.33812955,2.52983375 7.61712955,2.01883375 C7.57512955,2.00583375 7.53212955,1.99983375 7.49012955,1.99983375 M11.3321295,6.83183375 C8.91612955,6.83183375 6.74812955,5.21583375 6.05912955,2.90183375 C5.90712955,2.38983375 6.05312955,1.82883375 6.44012955,1.44083375 C6.82912955,1.05483375 7.38912955,0.905833749 7.90212955,1.05983375 C10.2161295,1.74783375 11.8321295,3.91583375 11.8321295,6.33183375 C11.8321295,6.60783375 11.6081295,6.83183375 11.3321295,6.83183375" id="Fill-3"></path>
                    <path d="M15.341,1.99983375 C15.299,1.99983375 15.257,2.00583375 15.215,2.01883375 C13.494,2.52983375 12.245,4.04283375 12.031,5.79983375 C13.789,5.58783375 15.301,4.33883375 15.814,2.61683375 C15.885,2.37483375 15.732,2.19683375 15.684,2.14783375 C15.588,2.05183375 15.465,1.99983375 15.341,1.99983375 M11.5,6.83183375 C11.224,6.83183375 11,6.60783375 11,6.33183375 C11,3.91583375 12.616,1.74783375 14.93,1.05983375 C15.444,0.905833749 16.003,1.05483375 16.392,1.44083375 C16.778,1.82883375 16.924,2.38983375 16.773,2.90183375 C16.084,5.21583375 13.916,6.83183375 11.5,6.83183375" id="Fill-4"></path>
                    <path d="M11.50025,22.9995563 C11.22425,22.9995563 11.00025,22.7755563 11.00025,22.4995563 L11.00025,7.7065563 L8.85425,9.8535563 C8.65825,10.0485563 8.34225,10.0485563 8.14625,9.8535563 C7.95125,9.6575563 7.95125,9.3415563 8.14625,9.1455563 L11.14625,6.1455563 C11.29025,6.0025563 11.50525,5.9615563 11.69125,6.0375563 C11.87825,6.1145563 12.00025,6.2975563 12.00025,6.4995563 L12.00025,22.4995563 C12.00025,22.7755563 11.77625,22.9995563 11.50025,22.9995563" id="Fill-5"></path>
                    <path d="M14.50025,10.00025 C14.37225,10.00025 14.24425,9.95125 14.14625,9.85425 L11.14625,6.85425 C10.95125,6.65825 10.95125,6.34225 11.14625,6.14625 C11.34225,5.95125 11.65825,5.95125 11.85425,6.14625 L14.85425,9.14625 C15.04925,9.34225 15.04925,9.65825 14.85425,9.85425 C14.75625,9.95125 14.62825,10.00025 14.50025,10.00025" id="Fill-6"></path>
                </g>
            </g>
        </g>
    </g>
</svg>
