<svg width="24px" height="24px" viewBox="0 0 24 24" version="1.1" xmlns="http://www.w3.org/2000/svg" xmlns:xlink="http://www.w3.org/1999/xlink">
    <!-- Generator: Sketch 49.3 (51167) - http://www.bohemiancoding.com/sketch -->
    <desc>Created with Sketch.</desc>
    <defs></defs>
    <g id="Symbols" stroke="none" stroke-width="1" fill="none" fill-rule="evenodd">
        <g id="COMPONENTES/MI-CUENTA/Menú-dashboard" transform="translate(-8.000000, -20.000000)" fill="#767676">
            <g id="Group" transform="translate(8.000000, 20.000000)">
                <g id="ICONOS/MI-CUENTA/Mi-cuenta-Gris">
                    <path d="M18.7224609,22 C18.6684609,22 18.6174609,21.992 18.5634609,21.975 L15.7304609,21.03 C15.5684609,20.976 15.4454609,20.843 15.4034609,20.677 L14.9994609,19.063 C14.9654609,18.926 14.9924609,18.78 15.0714609,18.663 C15.1504609,18.545 15.2754609,18.467 15.4154609,18.447 C17.0674609,18.215 18.2184609,17.82 18.8484609,17.558 C18.2284609,16.715 17.2774609,14.82 17.2774609,11.111 C17.2774609,9.182 17.0354609,5.944 15.4154609,5.944 L14.9444609,5.944 C14.8114609,5.944 14.6844609,5.892 14.5904609,5.798 C13.9844609,5.191 13.7384609,5 12.5824609,5 C11.6514609,5 7.88946089,6.088 7.88946089,11.111 C7.88946089,14.823 6.93546089,16.72 6.31646089,17.561 C6.94146089,17.823 8.08846089,18.219 9.74846089,18.449 C9.89046089,18.469 10.0164609,18.547 10.0954609,18.665 C10.1744609,18.782 10.2014609,18.928 10.1654609,19.065 L9.76346089,20.677 C9.72146089,20.843 9.59846089,20.976 9.43546089,21.03 L6.60246089,21.975 C6.34046089,22.062 6.05746089,21.92 5.97046089,21.658 C5.88246089,21.396 6.02446089,21.113 6.28646089,21.025 L8.85946089,20.168 L9.06246089,19.355 C6.56546089,18.933 5.29846089,18.185 5.24346089,18.151 C5.09946089,18.065 5.00846089,17.914 5.00046089,17.748 C4.99346089,17.582 5.06646089,17.422 5.20146089,17.322 C5.21046089,17.313 6.88946089,15.922 6.88946089,11.111 C6.88946089,5.791 10.7984609,4 12.5824609,4 C13.9554609,4 14.4704609,4.289 15.1494609,4.944 L15.4154609,4.944 C17.3144609,4.944 18.2774609,7.02 18.2774609,11.111 C18.2774609,15.922 19.9554609,17.313 19.9724609,17.327 C20.1004609,17.43 20.1734609,17.59 20.1624609,17.755 C20.1504609,17.919 20.0624609,18.069 19.9194609,18.153 C19.8634609,18.187 18.5834609,18.93 16.1034609,19.353 L16.3084609,20.168 L18.8794609,21.025 C19.1424609,21.113 19.2844609,21.396 19.1964609,21.658 C19.1254609,21.867 18.9314609,22 18.7224609,22" id="Fill-14"></path>
                    <path d="M12,1 C5.935,1 1,5.935 1,12 C1,18.065 5.935,23 12,23 C18.065,23 23,18.065 23,12 C23,5.935 18.065,1 12,1 M12,24 C5.383,24 0,18.617 0,12 C0,5.383 5.383,0 12,0 C18.617,0 24,5.383 24,12 C24,18.617 18.617,24 12,24" id="Fill-16"></path>
                </g>
            </g>
        </g>
    </g>
</svg>