<svg width="24px" height="17px" viewBox="0 0 24 17" version="1.1" xmlns="http://www.w3.org/2000/svg" xmlns:xlink="http://www.w3.org/1999/xlink">
    <!-- Generator: Sketch 49.3 (51167) - http://www.bohemiancoding.com/sketch -->
    <desc>Created with Sketch.</desc>
    <defs></defs>
    <g id="Symbols" stroke="none" stroke-width="1" fill="none" fill-rule="evenodd">
        <g id="COMPONENTES/MI-CUENTA/Menú-dashboard" transform="translate(-8.000000, -263.000000)" fill="#767676">
            <g id="Group-8" transform="translate(8.000000, 260.000000)">
                <g id="ICONOS/MI-CUENTA/Ayuda-Gris">
                    <path d="M8.5,4 C4.505,4 1,6.336 1,9 C1,10.425 2.015,11.951 3.524,12.798 C3.689,12.891 3.788,13.069 3.779,13.259 C3.738,14.084 2.813,15.295 2.281,15.926 C3.304,15.729 5.627,15.143 6.747,14.056 C6.855,13.952 7.002,13.897 7.152,13.918 C7.628,13.973 8.07,14 8.5,14 C12.496,14 16,11.664 16,9 C16,6.336 12.496,4 8.5,4 M1.849,16.998 C1.38,16.998 1,16.628 1,16.173 C1,15.981 1.07,15.798 1.196,15.65 C1.205,15.639 1.214,15.626 1.225,15.615 C1.762,15.025 2.494,14.064 2.714,13.478 C1.078,12.427 0,10.668 0,9 C0,5.748 3.894,3 8.5,3 C13.108,3 17,5.748 17,9 C17,12.252 13.108,15 8.5,15 C8.102,15 7.695,14.979 7.267,14.937 C5.413,16.546 1.88,16.998 1.849,16.998" id="Fill-24"></path>
                    <path d="M22.0023431,19.6925368 C21.9713431,19.6925368 18.4383431,19.2405368 16.5843431,17.6305368 C16.1553431,17.6735368 15.7493431,17.6945368 15.3503431,17.6945368 C13.5253431,17.6945368 11.7653431,17.2625368 10.2623431,16.4455368 C10.0183431,16.3145368 9.9293431,16.0105368 10.0603431,15.7675368 C10.1923431,15.5255368 10.4953431,15.4355368 10.7383431,15.5675368 C12.0973431,16.3045368 13.6913431,16.6945368 15.3503431,16.6945368 C15.7813431,16.6945368 16.2223431,16.6675368 16.6983431,16.6125368 C16.8473431,16.5905368 16.9963431,16.6465368 17.1043431,16.7505368 C18.2113431,17.8265368 20.5023431,18.4135368 21.5663431,18.6165368 C21.0333431,17.9845368 20.1123431,16.7765368 20.0723431,15.9545368 C20.0633431,15.7635368 20.1613431,15.5855368 20.3273431,15.4925368 C21.8353431,14.6455368 22.8503431,13.1195368 22.8503431,11.6945368 C22.8503431,9.67853682 20.7163431,7.69853682 17.7763431,6.98653682 C17.5083431,6.92153682 17.3433431,6.65053682 17.4083431,6.38253682 C17.4733431,6.11353682 17.7433431,5.94853682 18.0133431,6.01453682 C21.4493431,6.84753682 23.8503431,9.18353682 23.8503431,11.6945368 C23.8503431,13.3625368 22.7733431,15.1225368 21.1383431,16.1715368 C21.3613431,16.7605368 22.1043431,17.7365368 22.6263431,18.3095368 C22.6373431,18.3205368 22.6463431,18.3335368 22.6553431,18.3445368 C22.7813431,18.4925368 22.8503431,18.6755368 22.8503431,18.8675368 C22.8503431,19.3225368 22.4693431,19.6925368 22.0023431,19.6925368" id="Fill-25"></path>
                </g>
            </g>
        </g>
    </g>
</svg>
