<svg width="23px" height="24px" viewBox="0 0 23 24" version="1.1" xmlns="http://www.w3.org/2000/svg" xmlns:xlink="http://www.w3.org/1999/xlink">
    <!-- Generator: Sketch 49.3 (51167) - http://www.bohemiancoding.com/sketch -->
    <desc>Created with Sketch.</desc>
    <defs></defs>
    <g id="Symbols" stroke="none" stroke-width="1" fill="none" fill-rule="evenodd">
        <g id="COMPONENTES/MI-CUENTA/Menú-dashboard" transform="translate(-9.000000, -60.000000)" fill="#782B90">
            <g id="Group-2" transform="translate(8.000000, 60.000000)">
                <g id="ICONOS/MI-CUENTA/Mis-puntos">
                    <path d="M10.7263427,19 L13.3063427,19 C17.9033427,14.188 18.0533427,3.404 18.0273427,1 L6.00734268,1 C5.98134268,3.405 6.13434268,14.19 10.7263427,19 M13.5163427,20 L10.5163427,20 C10.3843427,20 10.2573427,19.947 10.1643427,19.854 C4.54234268,14.232 4.99634268,1.039 5.01634268,0.48 C5.02834268,0.212 5.24834268,0 5.51634268,0 L18.5163427,0 C18.7863427,0 19.0063427,0.212 19.0163427,0.48 C19.0393427,1.039 19.4923427,14.232 13.8713427,19.854 C13.7773427,19.947 13.6503427,20 13.5163427,20" id="Fill-18"></path>
                    <path d="M11.5000843,18 C11.3560843,18 11.2120843,17.938 11.1140843,17.816 C7.42908431,13.312 7.04008431,4.277 7.00008431,2.512 C6.99508431,2.235 7.21308431,2.006 7.48908431,2 C7.74808431,2.015 7.99508431,2.212 8.00008431,2.489 C8.10808431,7.207 9.19108431,13.887 11.8880843,17.184 C12.0630843,17.397 12.0310843,17.712 11.8170843,17.888 C11.7250843,17.963 11.6120843,18 11.5000843,18" id="Fill-19"></path>
                    <path d="M7.97783179,16.4606564 C7.88283179,16.4606564 7.78583179,16.4336564 7.70083179,16.3756564 C7.50483179,16.2436564 2.90783179,13.1116564 1.51583179,9.64765638 C0.541831785,7.22365638 0.990831785,4.33465638 2.49483179,3.34065638 C2.95883179,3.03265638 4.21783179,2.49165638 5.83283179,4.10665638 C6.02883179,4.30265638 6.02883179,4.61865638 5.83283179,4.81465638 C5.63783179,5.00965638 5.32183179,5.00965638 5.12583179,4.81465638 C4.57383179,4.26065638 3.76383179,3.70265638 3.04483179,4.17565638 C2.05683179,4.82865638 1.58883179,7.14765638 2.44283179,9.27365638 C3.72083179,12.4526564 8.21383179,15.5166564 8.25983179,15.5456564 C8.48883179,15.7006564 8.54783179,16.0116564 8.39283179,16.2406564 C8.29683179,16.3836564 8.13983179,16.4606564 7.97783179,16.4606564" id="Fill-20"></path>
                    <path d="M16.4999024,16.4602601 C16.3389024,16.4602601 16.1829024,16.3832601 16.0849024,16.2402601 C15.9319024,16.0112601 15.9909024,15.7002601 16.2199024,15.5452601 C16.2659024,15.5162601 20.7589024,12.4522601 22.0359024,9.27326009 C22.8909024,7.14726009 22.4219024,4.82826009 21.4349024,4.17526009 C20.7139024,3.70326009 19.9069024,4.26126009 19.3539024,4.81426009 C19.1579024,5.00926009 18.8409024,5.00926009 18.6469024,4.81426009 C18.4509024,4.61826009 18.4509024,4.30226009 18.6469024,4.10626009 C20.2619024,2.49126009 21.5209024,3.03326009 21.9849024,3.34026009 C23.4889024,4.33426009 23.9379024,7.22326009 22.9629024,9.64726009 C21.5719024,13.1112601 16.9749024,16.2432601 16.7789024,16.3752601 C16.6939024,16.4332601 16.5969024,16.4602601 16.4999024,16.4602601" id="Fill-21"></path>
                    <path d="M8.035,23 L15.965,23 C15.721,21.306 14.26,20 12.5,20 L11.5,20 C9.74,20 8.279,21.306 8.035,23 M16.5,24 L7.5,24 C7.223,24 7,23.776 7,23.5 C7,21.019 9.018,19 11.5,19 L12.5,19 C14.981,19 17,21.019 17,23.5 C17,23.776 16.776,24 16.5,24" id="Fill-22"></path>
                    <path d="M19.5,1 L4.5,1 C4.225,1 4,0.776 4,0.5 C4,0.225 4.225,0 4.5,0 L19.5,0 C19.777,0 20,0.225 20,0.5 C20,0.776 19.777,1 19.5,1" id="Fill-23"></path>
                </g>
            </g>
        </g>
    </g>
</svg>
